<svg xmlns="http://www.w3.org/2000/svg" width="512pt" height="512pt" viewBox="0 0 512 512">
    <path d="M140.008 423h-30c-11.047 0-20-8.953-20-20V217c0-11.047 8.953-20 20-20h30c11.047 0 20 8.953 20 20v186c0 11.047-8.953 20-20 20zm26.984-298.004c0-22.629-18.36-40.996-40.976-40.996C103.312 84 85 102.367 85 124.996 85 147.633 103.313 166 126.016 166c22.617 0 40.976-18.367 40.976-41.004zM422 403V298.664C422 237.996 409.184 193 338.312 193c-34.054 0-56.914 17.031-66.246 34.742H272V217c0-11.047-8.953-20-20-20h-28c-11.047 0-20 8.953-20 20v186c0 11.047 8.953 20 20 20h28c11.047 0 20-8.953 20-20v-92.21c0-29.388 7.48-57.856 43.906-57.856 35.93 0 37.094 33.605 37.094 59.722V403c0 11.047 8.953 20 20 20h29c11.047 0 20-8.953 20-20zm90 29c0-11.047-8.953-20-20-20s-20 8.953-20 20c0 22.055-17.945 40-40 40H80c-22.055 0-40-17.945-40-40V80c0-22.055 17.945-40 40-40h352c22.055 0 40 17.945 40 40v251c0 11.047 8.953 20 20 20s20-8.953 20-20V80c0-44.113-35.887-80-80-80H80C35.887 0 0 35.887 0 80v352c0 44.113 35.887 80 80 80h352c44.113 0 80-35.887 80-80zm0 0"/>
</svg>
