<svg xmlns="http://www.w3.org/2000/svg" id="Capa_1" viewBox="0 0 512 512">
    <style>
        .st0{stroke:#000;stroke-width:7;stroke-miterlimit:10}.st1{fill:none}
    </style>
    <path d="M256 90c-49.6 0-90 40.4-90 90 0 49.3 39.7 90 90 90 50.9 0 90-41.2 90-90 0-49.6-40.4-90-90-90zm0 150.2c-33.3 0-60.2-27-60.2-60.2 0-33.1 27.1-60.2 60.2-60.2s60.1 27.1 60.1 60.2c0 32.7-26.3 60.2-60.1 60.2z" class="st0"/>
    <path d="M293.9 298.1l8.5-8.5c4.7-4.7 12.3-4.7 17 0l24.1 24.1 35.4-59.1c13.2-22.2 20.2-47.5 20.2-73.2 0-79-64.2-143.2-143.1-143.2-79 0-143.2 64.2-143.2 143.2 0 26.4 7.4 52.4 21.5 75.2L258.2 456l66.2-110.5-30.5-30.5c-4.7-4.6-4.7-12.3 0-16.9z" class="st1"/>
    <path d="M378.9 254.5zM437.3 181.3C437.3 81.3 356 0 256 0S74.7 81.3 74.7 181.3c0 33.8 9.4 66.8 27.1 95.4L242.2 503c3.5 5.7 9.6 9.1 16.3 9.1h.2c6.6-.1 12.9-3.6 16.3-9.3l71.4-119.2c3.6-5.9 2.6-13.6-2.3-18.5l-5.9-5.9c-7-7-18.6-5.5-23.7 2.9L271 434.8c-5.8 9.7-19.8 9.8-25.8.2L134.3 256.5c-14.1-22.7-21.5-48.7-21.5-75.2 0-79 64.2-143.2 143.2-143.2 78.9 0 143.1 64.2 143.1 143.2 0 25.7-7 51.1-20.2 73.2l-29.4 49c-3.6 5.9-2.6 13.6 2.3 18.5l5.9 5.9c7 7 18.6 5.5 23.7-2.9l30.4-50.8c16.7-28 25.5-60.1 25.5-92.9z"/>
</svg>
