<?xml version="1.0" encoding="utf-8"?>
<!-- Generator: Adobe Illustrator 21.0.0, SVG Export Plug-In . SVG Version: 6.00 Build 0)  -->
<svg version="1.1" id="Layer_1" xmlns="http://www.w3.org/2000/svg" xmlns:xlink="http://www.w3.org/1999/xlink" x="0px" y="0px"
	 viewBox="0 0 512 512" style="enable-background:new 0 0 512 512;" xml:space="preserve">
<style type="text/css">
	.st0{fill:#FFFFFF;}
</style>
<g>
	<path class="st0" d="M382,492H30c-5.5,0-10-4.5-10-10V30c0-5.5,4.5-10,10-10h20c5.5,0,10-4.5,10-10S55.5,0,50,0H30
		C13.5,0,0,13.5,0,30v452c0,16.5,13.5,30,30,30h352c5.5,0,10-4.5,10-10S387.5,492,382,492z"/>
	<path class="st0" d="M482,0H130c-5.5,0-10,4.5-10,10s4.5,10,10,10h352c5.5,0,10,4.5,10,10v452c0,5.5-4.5,10-10,10h-20
		c-5.5,0-10,4.5-10,10s4.5,10,10,10h20c16.5,0,30-13.5,30-30V30C512,13.5,498.5,0,482,0z"/>
	<path class="st0" d="M123.3,176.8c29.1,0,52.8-23.7,52.8-52.8c0-29.1-23.7-52.8-52.8-52.8c-29.1,0-52.8,23.7-52.8,52.8
		S94.2,176.8,123.3,176.8z M123.3,91.3c18.1,0,32.8,14.7,32.8,32.8s-14.7,32.8-32.8,32.8S90.5,142.1,90.5,124S105.2,91.3,123.3,91.3
		z"/>
	<path class="st0" d="M344.3,181.8c-22.1,0-43.4,7.7-60.5,21.3v-6.3c0-5.5-4.5-10-10-10H204c-5.5,0-10,4.5-10,10v234
		c0,5.5,4.5,10,10,10h73.5c5.5,0,10-4.5,10-10V295.7c0-16.7,13.6-30.3,30.3-30.3S348,279,348,295.7v135.1c0,5.5,4.5,10,10,10h73.5
		c5.5,0,10-4.5,10-10V279C441.5,225.4,397.9,181.8,344.3,181.8z M421.5,420.8H368V295.7c0-27.7-22.5-50.3-50.3-50.3
		c-27.7,0-50.3,22.5-50.3,50.3v125.1H214v-214h49.8v21c0,4.3,2.8,8.2,6.9,9.5c4.1,1.3,8.6-0.1,11.2-3.6c14.6-20,37.9-31.9,62.4-31.9
		c42.6,0,77.3,34.7,77.3,77.3V420.8z"/>
	<path class="st0" d="M86.5,186.8c-5.5,0-10,4.5-10,10v234c0,5.5,4.5,10,10,10H160c5.5,0,10-4.5,10-10v-234c0-5.5-4.5-10-10-10H86.5
		z M150,420.8H96.5v-214H150V420.8z"/>
	<path class="st0" d="M90,20c5.5,0,10-4.5,10-10S95.5,0,90,0h0c-5.5,0-10,4.5-10,10S84.5,20,90,20z"/>
	<path class="st0" d="M422,492L422,492c-5.5,0-10,4.5-10,10s4.5,10,10,10s10-4.5,10-10S427.5,492,422,492z"/>
</g>
</svg>
