<?xml version="1.0" encoding="utf-8"?>
<!-- Generator: Adobe Illustrator 21.0.0, SVG Export Plug-In . SVG Version: 6.00 Build 0)  -->
<svg version="1.1" id="regular" xmlns="http://www.w3.org/2000/svg" xmlns:xlink="http://www.w3.org/1999/xlink" x="0px" y="0px"
	 viewBox="0 0 512 512" style="enable-background:new 0 0 512 512;" xml:space="preserve">
<style type="text/css">
	.st0{fill:#FFFFFF;}
</style>
<g>
	<path class="st0" d="M427.9,295.7l-24.4,121.1c-1.2,5.8-7.6,8.7-12.7,5.8l-116.5-66.3c-6.9-3.9-15.8-2.2-20.7,4.3L236,384
		c-5.2,6.9-16.1,3.2-16.1-5.4V319c0-2.6,1.1-5,3-6.7l179.4-158.9c14.4-12.8-2.2-35.5-18.6-25.8L144.8,266.3
		c-2.6,1.5-5.8,1.6-8.5,0.3l-62.7-31.2c-7-3.5-6.5-13.6,0.7-16.4L459.3,68.8c6.6-2.6,13.5,3.2,12.1,10.1l-32.8,163.3
		c-1.1,5.6,3.1,10.7,8.8,10.7h14.3c4.3,0,8-3,8.8-7.2l41.2-205.3c2.5-12.5-9.9-22.7-21.5-18l-480,187.2c-12.9,5-13.7,23.1-1.3,29.2
		l125.2,62.4c4.8,2.4,10.6,2.2,15.2-0.5l33.5-19.5c9.4-5.4,18.6,7.3,10.5,14.5l0,0c-3.4,3.1-5.4,7.4-5.4,12v145.6
		c0,15.4,19.6,21.8,28.8,9.6l49.4-65.6c2.7-3.6,7.7-4.6,11.6-2.4l127,72.3c9.4,5.4,21.4,0,23.6-10.8L458.5,306
		c1.1-5.3-3-10.3-8.5-10.3"/>
</g>
</svg>
