<svg width="20" height="20" viewBox="0 0 20 20" fill="none" xmlns="http://www.w3.org/2000/svg">
<g clip-path="url(#clip0)">
<path d="M14.1022 4.48584C13.973 4.79667 13.6688 5 13.3322 5H10.8322V13.3333C10.8322 13.7933 10.4589 14.1667 9.99885 14.1667C9.53885 14.1667 9.16552 13.7933 9.16552 13.3333V5H6.66552C6.32885 5 6.02469 4.79667 5.89552 4.48584C5.76636 4.17417 5.83802 3.81584 6.07636 3.5775L9.40969 0.244169C9.73552 -0.0816643 10.2622 -0.0816643 10.588 0.244169L13.9213 3.5775C14.1597 3.81584 14.2313 4.17417 14.1022 4.48584Z" fill="#D4D4D4"/>
<path d="M17.5 20H2.5C1.12167 20 0 18.8783 0 17.5V14.1667C0 13.7067 0.373333 13.3333 0.833333 13.3333C1.29333 13.3333 1.66667 13.7067 1.66667 14.1667V17.5C1.66667 17.9592 2.04083 18.3333 2.5 18.3333H17.5C17.9592 18.3333 18.3333 17.9592 18.3333 17.5V14.1667C18.3333 13.7067 18.7067 13.3333 19.1667 13.3333C19.6267 13.3333 20 13.7067 20 14.1667V17.5C20 18.8783 18.8783 20 17.5 20Z" fill="#D4D4D4"/>
</g>
<defs>
<clipPath id="clip0">
<rect width="20" height="20" fill="white"/>
</clipPath>
</defs>
</svg>
