<?xml version="1.0" encoding="utf-8"?>
<!-- Generator: Adobe Illustrator 21.0.0, SVG Export Plug-In . SVG Version: 6.00 Build 0)  -->
<svg version="1.1" id="Layer_1" xmlns="http://www.w3.org/2000/svg" xmlns:xlink="http://www.w3.org/1999/xlink" x="0px" y="0px"
	 viewBox="0 0 500 300" style="enable-background:new 0 0 500 300;" xml:space="preserve">
<style type="text/css">
	.st0{fill:#40403F;}
	.st1{display:none;}
	.st2{display:inline;fill:url(#SVGID_1_);}
	.st3{fill:url(#SVGID_2_);}
	.st4{fill:url(#SVGID_3_);}
	.st5{fill:url(#SVGID_4_);}
	.st6{fill:url(#SVGID_5_);}
	.st7{fill:url(#SVGID_6_);}
	.st8{fill:url(#SVGID_7_);}
	.st9{fill:url(#SVGID_8_);}
	.st10{fill:url(#SVGID_9_);}
</style>
<g>
	<path class="st0" d="M251.5,111.9v7.8h-13.6v41.5H228v-41.5h-13.5v-7.8H251.5z"/>
	<path class="st0" d="M298,161.1l-11.5-19.2h-4.3v19.2h-9.8v-49.3H291c5.7,0,10.1,1.4,13.1,4.2c3,2.8,4.5,6.5,4.5,11
		c0,3.7-1,6.8-3.1,9.4c-2.1,2.5-5.1,4.2-9,5l12.3,19.7H298z M282.1,135.2h8.1c5.6,0,8.4-2.5,8.4-7.5c0-2.4-0.7-4.2-2.1-5.5
		c-1.4-1.3-3.5-2-6.4-2h-8.1V135.2z"/>
	<path class="st0" d="M340.5,111.9v49.3h-9.8v-49.3H340.5z"/>
	<path class="st0" d="M374.6,142.8v18.3h-9.8v-49.3h17.9c5.8,0,10.2,1.4,13.2,4.2c3,2.8,4.4,6.6,4.4,11.4c0,4.7-1.5,8.4-4.6,11.2
		c-3,2.8-7.4,4.2-13,4.2H374.6z M390.3,127.4c0-2.5-0.7-4.3-2-5.7c-1.3-1.3-3.6-2-6.6-2h-7V135h7C387.4,135,390.3,132.4,390.3,127.4
		z"/>
	<path class="st0" d="M431.9,153.6h16.5v7.5H422v-49.3h9.8V153.6z"/>
	<path class="st0" d="M479.5,119.7v12.8h17.4v7.5h-17.4v13.3H499v7.9h-29.4v-49.3H499v7.8H479.5z"/>
</g>
<g>
	<path class="st0" d="M238.2,184.4c2.1,1.7,3.4,4,3.9,6.8h-4.4c-0.3-1.8-1.1-3.2-2.5-4.2c-1.4-1-3-1.5-5-1.5c-1.5,0-2.8,0.3-4,1
		c-1.2,0.7-2.2,1.7-2.9,3.1c-0.7,1.4-1.1,3.1-1.1,5.1c0,2,0.4,3.8,1.1,5.1c0.7,1.4,1.7,2.4,2.9,3.1c1.2,0.7,2.5,1,4,1
		c2,0,3.7-0.5,5-1.6c1.4-1,2.2-2.4,2.5-4.2h4.4c-0.5,2.9-1.8,5.2-3.9,6.9c-2.1,1.7-4.7,2.5-7.9,2.5c-2.4,0-4.5-0.5-6.4-1.6
		c-1.9-1-3.3-2.5-4.4-4.5c-1-1.9-1.6-4.2-1.6-6.8c0-2.6,0.5-4.9,1.6-6.8c1-1.9,2.5-3.4,4.4-4.5c1.9-1,4-1.6,6.4-1.6
		C233.5,181.8,236.1,182.7,238.2,184.4z"/>
	<path class="st0" d="M270.4,183.4c1.9,1,3.4,2.5,4.5,4.5c1.1,1.9,1.6,4.2,1.6,6.8c0,2.6-0.5,4.9-1.6,6.8c-1.1,1.9-2.6,3.4-4.5,4.5
		c-1.9,1-4.1,1.6-6.5,1.6c-2.4,0-4.6-0.5-6.5-1.6c-1.9-1-3.4-2.5-4.5-4.5c-1.1-1.9-1.6-4.2-1.6-6.8c0-2.6,0.5-4.9,1.6-6.8
		c1.1-1.9,2.6-3.4,4.5-4.5c1.9-1,4.1-1.6,6.5-1.6C266.3,181.8,268.5,182.3,270.4,183.4z M259.8,186.5c-1.3,0.7-2.3,1.7-3.1,3.1
		c-0.8,1.4-1.2,3.1-1.2,5.1c0,2,0.4,3.7,1.2,5.1c0.8,1.4,1.8,2.4,3.1,3.1c1.3,0.7,2.6,1,4.1,1c1.5,0,2.9-0.3,4.1-1
		c1.3-0.7,2.3-1.7,3.1-3.1c0.8-1.4,1.2-3.1,1.2-5.1c0-2-0.4-3.8-1.2-5.1c-0.8-1.4-1.8-2.4-3.1-3.1c-1.3-0.7-2.6-1-4.1-1
		C262.4,185.5,261,185.8,259.8,186.5z"/>
	<path class="st0" d="M307.2,184.5c1.8,1.9,2.7,4.6,2.7,8.1v14.6h-4.2V193c0-2.5-0.6-4.4-1.9-5.8c-1.3-1.3-3-2-5.2-2
		c-2.3,0-4.1,0.7-5.5,2.2c-1.4,1.5-2.1,3.6-2.1,6.5v13.3h-4.2v-25.1h4.2v5.9c0.6-2,1.8-3.6,3.4-4.7c1.6-1.1,3.5-1.6,5.6-1.6
		C303,181.7,305.4,182.7,307.2,184.5z"/>
	<path class="st0" d="M336,184c1.7,1.5,2.8,3.5,3.1,6h-4c-0.2-1.5-0.8-2.7-1.8-3.7c-1-1-2.5-1.4-4.2-1.4c-1.5,0-2.7,0.4-3.5,1.1
		c-0.8,0.7-1.3,1.7-1.3,2.9c0,0.9,0.3,1.7,0.8,2.2c0.6,0.6,1.3,1,2.1,1.3c0.8,0.3,2,0.6,3.4,0.9c1.9,0.4,3.4,0.9,4.5,1.3
		c1.1,0.4,2.1,1.1,2.9,2.1c0.8,1,1.2,2.3,1.2,3.9c0,2-0.8,3.7-2.3,5c-1.5,1.3-3.6,1.9-6.1,1.9c-3,0-5.4-0.7-7.3-2.1
		c-1.9-1.4-3-3.4-3.3-6h4c0.2,1.5,0.8,2.8,2,3.7c1.2,0.9,2.7,1.4,4.6,1.4c1.4,0,2.6-0.4,3.4-1.1c0.8-0.7,1.2-1.7,1.2-2.9
		c0-1-0.3-1.8-0.9-2.3c-0.6-0.6-1.3-1-2.1-1.3c-0.9-0.3-2-0.6-3.5-1c-1.9-0.4-3.3-0.9-4.5-1.3c-1.1-0.4-2.1-1.1-2.8-2
		c-0.8-0.9-1.2-2.2-1.2-3.8c0-2.1,0.8-3.8,2.3-5.1c1.6-1.3,3.7-1.9,6.3-1.9C332,181.8,334.3,182.6,336,184z"/>
	<path class="st0" d="M372.2,182.1v25.1h-4.2v-5.9c-0.6,2-1.8,3.6-3.4,4.7c-1.6,1.1-3.5,1.6-5.7,1.6c-2.9,0-5.2-0.9-7-2.8
		c-1.8-1.9-2.7-4.6-2.7-8.1v-14.6h4.2v14.2c0,2.5,0.6,4.4,1.9,5.8c1.3,1.4,3,2,5.2,2c2.3,0,4.1-0.7,5.5-2.2c1.4-1.5,2.1-3.6,2.1-6.5
		v-13.3H372.2z"/>
	<path class="st0" d="M388.1,173.4v33.8h-4.2v-33.8H388.1z"/>
	<path class="st0" d="M411.7,203.6v3.7h-3.1c-2.6,0-4.5-0.6-5.7-1.8c-1.3-1.2-1.9-3.3-1.9-6.1v-13.5h-3.7v-3.6h3.7v-6.3h4.2v6.3h6.5
		v3.6h-6.5v13.6c0,1.6,0.3,2.7,0.9,3.3c0.6,0.6,1.6,0.9,3.1,0.9H411.7z"/>
	<path class="st0" d="M421.9,172.9c0.5-0.5,1.2-0.7,2.1-0.7c0.9,0,1.5,0.2,2.1,0.7c0.5,0.5,0.8,1.1,0.8,1.8c0,0.8-0.3,1.4-0.8,1.8
		c-0.5,0.5-1.2,0.7-2.1,0.7c-0.9,0-1.5-0.2-2.1-0.7c-0.5-0.5-0.8-1.1-0.8-1.8C421.1,174,421.3,173.4,421.9,172.9z M426,182.1v25.1
		h-4.2v-25.1H426z"/>
	<path class="st0" d="M457.9,184.5c1.8,1.9,2.7,4.6,2.7,8.1v14.6h-4.2V193c0-2.5-0.6-4.4-1.9-5.8c-1.3-1.3-3-2-5.2-2
		c-2.3,0-4.1,0.7-5.5,2.2c-1.4,1.5-2.1,3.6-2.1,6.5v13.3h-4.2v-25.1h4.2v5.9c0.6-2,1.8-3.6,3.4-4.7c1.6-1.1,3.5-1.6,5.6-1.6
		C453.8,181.7,456.1,182.7,457.9,184.5z"/>
	<path class="st0" d="M488.5,183.6c1.7,1.2,2.9,2.8,3.5,4.9v-6.4h4.2v25.5c0,2.3-0.5,4.4-1.5,6.2c-1,1.8-2.3,3.2-4.1,4.2
		c-1.8,1-3.8,1.5-6.2,1.5c-3.4,0-6.1-0.8-8.3-2.4c-2.1-1.6-3.5-3.8-4.1-6.6h4.1c0.5,1.7,1.4,3,2.8,4c1.4,1,3.1,1.4,5.2,1.4
		c2.3,0,4.1-0.7,5.6-2.2c1.5-1.4,2.2-3.5,2.2-6.1v-6.8c-0.7,2-1.8,3.7-3.5,4.9c-1.7,1.2-3.8,1.8-6.2,1.8c-2.2,0-4.2-0.5-5.9-1.6
		c-1.7-1-3.1-2.5-4.1-4.5c-1-1.9-1.5-4.2-1.5-6.8c0-2.6,0.5-4.9,1.5-6.8c1-1.9,2.4-3.4,4.1-4.5c1.7-1,3.7-1.6,5.9-1.6
		C484.7,181.8,486.8,182.4,488.5,183.6z M477.4,188c-1.5,1.6-2.3,3.9-2.3,6.7c0,2.9,0.8,5.1,2.3,6.7c1.5,1.6,3.6,2.4,6.1,2.4
		c1.6,0,3.1-0.4,4.4-1.1c1.3-0.8,2.3-1.8,3-3.2c0.7-1.4,1.1-3,1.1-4.8c0-1.8-0.4-3.4-1.1-4.8s-1.7-2.5-3-3.2
		c-1.3-0.7-2.8-1.1-4.4-1.1C480.9,185.5,478.9,186.3,477.4,188z"/>
</g>
<g>
	<g class="st1">
		<linearGradient id="SVGID_1_" gradientUnits="userSpaceOnUse" x1="98.0719" y1="190.4197" x2="186.7968" y2="190.4197">
			<stop  offset="0" style="stop-color:#2B8CA8"/>
			<stop  offset="1" style="stop-color:#009DAB"/>
		</linearGradient>
		<path class="st2" d="M172,164.9c-33.2-2.9-43.5,6.3-47.4,20.3H98.1c1.5-26.2,33.2-60.8,81.6-39.2 M186.8,236.2
			C128.7,255.5,97,219,98.1,189.5h26.3c3.5,8.2,9.8,25.3,47.1,26.3"/>
	</g>
	<g>
		<linearGradient id="SVGID_2_" gradientUnits="userSpaceOnUse" x1="26.1047" y1="181.9281" x2="114.1363" y2="181.9281">
			<stop  offset="0" style="stop-color:#00B3C7"/>
			<stop  offset="1" style="stop-color:#00749A"/>
		</linearGradient>
		<path class="st3" d="M87.3,122.5L87.3,122.5l-23.9,30.4l15.8,11.2c8.4,6.5,9.7,18.8,2.9,27.5c-6.9,8.9-21.4,10.5-30.9,3.4
			l-24.5,32.2c25.5,19.4,60.7,19,82.2-1.2c-8.3-9.4-14.8-23.2-14.7-37.5c0.1-16.2,8.3-29.9,19.9-39.4
			C109.2,142.1,95.2,128.6,87.3,122.5z"/>
		<linearGradient id="SVGID_3_" gradientUnits="userSpaceOnUse" x1="60.8582" y1="86.1782" x2="164.0349" y2="86.1782">
			<stop  offset="0" style="stop-color:#00B3C7"/>
			<stop  offset="1" style="stop-color:#00749A"/>
		</linearGradient>
		<path class="st4" d="M60.9,84.1l32,24.8c5.2-6.6,13.7-8.4,20.2-4.7l23.3-30.6C111.9,56.7,78.7,61.1,60.9,84.1z"/>
		<linearGradient id="SVGID_4_" gradientUnits="userSpaceOnUse" x1="60.6236" y1="111.5914" x2="164.3322" y2="111.5914">
			<stop  offset="0" style="stop-color:#00B3C7"/>
			<stop  offset="1" style="stop-color:#00749A"/>
		</linearGradient>
		<path class="st5" d="M141,77.2L117.5,108c4.1,5.2,4.5,12.6,0.5,17.8c-2.6,3.4-7.1,5.7-11.6,6.3c4.3,4.2,9,9.4,12.3,13.9
			c8.3-5.5,16.2-8.7,28-9.5c4.4-0.3,9.9-0.5,14.1,0.3C169.8,117.6,160.9,93.8,141,77.2z"/>
		<linearGradient id="SVGID_5_" gradientUnits="userSpaceOnUse" x1="0.4878" y1="181.2595" x2="47.4547" y2="181.2595">
			<stop  offset="0" style="stop-color:#00B3C7"/>
			<stop  offset="1" style="stop-color:#00749A"/>
		</linearGradient>
		<path class="st6" d="M46.3,165.4l-33.7-26.1c-19.6,25.2-14.8,61.7,9.7,84l24.8-32.6C41.2,183.1,40.9,172.3,46.3,165.4z"/>
		
			<linearGradient id="SVGID_6_" gradientUnits="userSpaceOnUse" x1="196.0593" y1="56.0961" x2="256.1671" y2="56.0961" gradientTransform="matrix(0.8039 -0.5947 0.5947 0.8039 -74.8709 301.2176)">
			<stop  offset="0" style="stop-color:#00B3C7"/>
			<stop  offset="1" style="stop-color:#00749A"/>
		</linearGradient>
		<path class="st7" d="M128.4,191.6l-29.8-0.9c0,21.2,22.7,66,79.5,45.2l-2.9-26.7C136.2,228.6,128.8,197.6,128.4,191.6z"/>
		
			<linearGradient id="SVGID_7_" gradientUnits="userSpaceOnUse" x1="283.8117" y1="-61.421" x2="345.1691" y2="-61.421" gradientTransform="matrix(0.8039 0.5947 0.5947 -0.8039 -74.8709 -68.9472)">
			<stop  offset="0" style="stop-color:#00B3C7"/>
			<stop  offset="1" style="stop-color:#00749A"/>
		</linearGradient>
		<path class="st8" d="M128.9,187.1l-30.3-0.9c-0.5-21.5,26.3-58.2,79.5-42.1l-2.9,28.5C145.8,154,129.1,174.2,128.9,187.1z"/>
		<linearGradient id="SVGID_8_" gradientUnits="userSpaceOnUse" x1="26.1047" y1="210.9074" x2="114.1363" y2="210.9074">
			<stop  offset="0" style="stop-color:#00B3C7"/>
			<stop  offset="1" style="stop-color:#00749A"/>
		</linearGradient>
		<path class="st9" d="M50.9,194.7l-24.8,32c0.2,0.2,0.4,0.3,0.6,0.4l24.5-32.2C51.1,194.8,51,194.8,50.9,194.7z"/>
		<linearGradient id="SVGID_9_" gradientUnits="userSpaceOnUse" x1="0.4868" y1="207.0031" x2="47.4538" y2="207.0031">
			<stop  offset="0" style="stop-color:#00B3C7"/>
			<stop  offset="1" style="stop-color:#00749A"/>
		</linearGradient>
		<path class="st10" d="M47.5,191.1c-0.1-0.1-0.2-0.3-0.3-0.4l-24.8,32.6c0,0,0.1,0.1,0.1,0.1L47.5,191.1z"/>
	</g>
</g>
</svg>
