
<svg width="102" height="62" viewBox="0 0 102 62" fill="none" xmlns="http://www.w3.org/2000/svg">
    <path d="M51.3058 23.1272V24.7392H48.5314V33.3159H46.5118V24.7392H43.7578V23.1272H51.3058Z" fill="#EAEAEA"/>
    <path d="M60.7927 33.2941L58.4467 29.3261H57.5695V33.2941H55.5703V23.1055H59.3647C60.5275 23.1055 61.4251 23.3948 62.0371 23.9735C62.6491 24.5521 62.9551 25.3168 62.9551 26.2468C62.9551 27.0115 62.7511 27.6521 62.3227 28.1895C61.8943 28.7061 61.2823 29.0575 60.4867 29.2228L62.9959 33.2941H60.7927ZM57.5491 27.9415H59.2015C60.3439 27.9415 60.9151 27.4248 60.9151 26.3915C60.9151 25.8955 60.7723 25.5235 60.4867 25.2548C60.2011 24.9861 59.7727 24.8415 59.1811 24.8415H57.5287V27.9415H57.5491Z" fill="#EAEAEA"/>
    <path d="M69.4631 23.1262V33.3149H67.4639V23.1262H69.4631Z" fill="#EAEAEA"/>
    <path d="M76.4182 29.5121V33.2941H74.4189V23.1055H78.0706C79.2538 23.1055 80.1514 23.3948 80.7634 23.9735C81.3754 24.5521 81.6609 25.3375 81.6609 26.3295C81.6609 27.3008 81.355 28.0655 80.7226 28.6441C80.1106 29.2228 79.213 29.5121 78.0706 29.5121H76.4182ZM79.6209 26.3295C79.6209 25.8128 79.4781 25.4408 79.2129 25.1515C78.9477 24.8828 78.4786 24.7381 77.8666 24.7381H76.4386V27.9001H77.8666C79.0294 27.9001 79.6209 27.3628 79.6209 26.3295Z" fill="#EAEAEA"/>
    <path d="M88.1075 31.7441H91.4735V33.2941H86.0879V23.1055H88.0871V31.7441H88.1075Z" fill="#EAEAEA"/>
    <path d="M97.8165 24.7382V27.3836H101.366V28.9336H97.8165V31.6822H101.794V33.3149H95.7969V23.1262H101.794V24.7382H97.8165Z" fill="#EAEAEA"/>
    <path d="M48.5933 38.1093C49.0217 38.4606 49.287 38.9359 49.389 39.5146H48.4913C48.4301 39.1426 48.2669 38.8533 47.9813 38.6466C47.6957 38.4399 47.3693 38.3366 46.9613 38.3366C46.6553 38.3366 46.3901 38.3986 46.1453 38.5433C45.9005 38.6879 45.6966 38.8946 45.5538 39.1839C45.411 39.4733 45.3293 39.8246 45.3293 40.2379C45.3293 40.6513 45.411 41.0233 45.5538 41.2919C45.6966 41.5813 45.9005 41.7879 46.1453 41.9326C46.3901 42.0773 46.6553 42.1393 46.9613 42.1393C47.3693 42.1393 47.7161 42.0359 47.9813 41.8086C48.2669 41.6019 48.4301 41.3126 48.4913 40.9406H49.389C49.287 41.5399 49.0217 42.0153 48.5933 42.3666C48.1649 42.7179 47.6346 42.8833 46.9818 42.8833C46.4922 42.8833 46.0637 42.7799 45.6761 42.5526C45.2885 42.3459 45.0029 42.0359 44.7785 41.6226C44.5745 41.2299 44.4521 40.7546 44.4521 40.2173C44.4521 39.6799 44.5541 39.2046 44.7785 38.8119C44.9825 38.4193 45.2885 38.1093 45.6761 37.8819C46.0637 37.6753 46.4922 37.5513 46.9818 37.5513C47.6346 37.5719 48.1649 37.7579 48.5933 38.1093Z" fill="#EAEAEA"/>
    <path d="M55.163 37.9024C55.5506 38.1091 55.8566 38.4191 56.081 38.8324C56.3054 39.2251 56.4074 39.7004 56.4074 40.2378C56.4074 40.7751 56.3054 41.2504 56.081 41.6431C55.8566 42.0358 55.5506 42.3458 55.163 42.5731C54.7754 42.7798 54.3266 42.9038 53.837 42.9038C53.3474 42.9038 52.8986 42.8004 52.511 42.5731C52.1234 42.3664 51.8174 42.0564 51.593 41.6431C51.3686 41.2504 51.2666 40.7751 51.2666 40.2378C51.2666 39.7004 51.3686 39.2251 51.593 38.8324C51.8174 38.4398 52.1234 38.1298 52.511 37.9024C52.8986 37.6958 53.3474 37.5718 53.837 37.5718C54.3266 37.5718 54.7754 37.6751 55.163 37.9024ZM53.0006 38.5431C52.7354 38.6878 52.5314 38.8944 52.3682 39.1838C52.205 39.4731 52.1234 39.8244 52.1234 40.2378C52.1234 40.6511 52.205 41.0024 52.3682 41.2918C52.5314 41.5811 52.7354 41.7878 53.0006 41.9324C53.2658 42.0771 53.531 42.1391 53.837 42.1391C54.143 42.1391 54.4286 42.0771 54.6734 41.9324C54.9386 41.7878 55.1426 41.5811 55.3058 41.2918C55.469 41.0024 55.5506 40.6511 55.5506 40.2378C55.5506 39.8244 55.469 39.4524 55.3058 39.1838C55.1426 38.8944 54.9386 38.6878 54.6734 38.5431C54.4082 38.3984 54.143 38.3364 53.837 38.3364C53.531 38.3364 53.2454 38.3984 53.0006 38.5431Z" fill="#EAEAEA"/>
    <path d="M62.6694 38.1299C63.0366 38.5226 63.2202 39.0806 63.2202 39.8039V42.8213H62.3634V39.8866C62.3634 39.3699 62.241 38.9773 61.9758 38.6879C61.7106 38.4193 61.3638 38.2746 60.915 38.2746C60.4458 38.2746 60.0786 38.4193 59.793 38.7293C59.5074 39.0393 59.3646 39.4733 59.3646 40.0726V42.8213H58.5078V37.6339H59.3646V38.8533C59.487 38.4399 59.7318 38.1093 60.0582 37.8819C60.3846 37.6546 60.7722 37.5513 61.2006 37.5513C61.8126 37.5513 62.3022 37.7579 62.6694 38.1299Z" fill="#EAEAEA"/>
    <path d="M68.5445 38.0264C68.8913 38.3364 69.1157 38.7498 69.1769 39.2664H68.3609C68.3201 38.9564 68.1977 38.7084 67.9937 38.5018C67.7897 38.2951 67.4837 38.2124 67.1369 38.2124C66.8309 38.2124 66.5861 38.2951 66.4229 38.4398C66.2597 38.5844 66.1577 38.7911 66.1577 39.0391C66.1577 39.2251 66.2189 39.3904 66.3209 39.4938C66.4433 39.6178 66.5861 39.7004 66.7493 39.7624C66.9125 39.8244 67.1573 39.8864 67.4429 39.9484C67.8305 40.0311 68.1365 40.1344 68.3609 40.2171C68.5853 40.2998 68.7893 40.4444 68.9525 40.6511C69.1157 40.8578 69.1973 41.1264 69.1973 41.4571C69.1973 41.8704 69.0341 42.2218 68.7281 42.4904C68.4221 42.7591 67.9937 42.8831 67.4837 42.8831C66.8717 42.8831 66.3821 42.7384 65.9945 42.4491C65.6069 42.1598 65.3825 41.7464 65.3213 41.2091H66.1373C66.1781 41.5191 66.3005 41.7878 66.5453 41.9738C66.7901 42.1598 67.0961 42.2631 67.4837 42.2631C67.7693 42.2631 68.0141 42.1804 68.1773 42.0358C68.3405 41.8911 68.4221 41.6844 68.4221 41.4364C68.4221 41.2298 68.3609 41.0644 68.2385 40.9611C68.1161 40.8371 67.9733 40.7544 67.8101 40.6924C67.6265 40.6304 67.4021 40.5684 67.0961 40.4858C66.7085 40.4031 66.4229 40.2998 66.1781 40.2171C65.9537 40.1344 65.7497 39.9898 65.6069 39.8038C65.4437 39.6178 65.3621 39.3491 65.3621 39.0184C65.3621 38.5844 65.5253 38.2331 65.8313 37.9644C66.1577 37.6958 66.5861 37.5718 67.1165 37.5718C67.7285 37.5718 68.1977 37.7371 68.5445 38.0264Z" fill="#EAEAEA"/>
    <path d="M75.9293 37.6338V42.8211H75.0725V41.6018C74.9501 42.0151 74.7053 42.3458 74.3789 42.5731C74.0525 42.8005 73.6649 42.9038 73.2161 42.9038C72.6245 42.9038 72.1553 42.7178 71.7881 42.3251C71.4209 41.9325 71.2373 41.3745 71.2373 40.6511V37.6338H72.0941V40.5685C72.0941 41.0851 72.2165 41.4778 72.4817 41.7671C72.7469 42.0565 73.0937 42.1805 73.5425 42.1805C74.0117 42.1805 74.3789 42.0358 74.6645 41.7258C74.9501 41.4158 75.0929 40.9818 75.0929 40.3825V37.6338H75.9293Z" fill="#EAEAEA"/>
    <path d="M79.1722 35.8359V42.8213H78.3154V35.8359H79.1722Z" fill="#EAEAEA"/>
    <path d="M83.9884 42.0773V42.842H83.356C82.8256 42.842 82.438 42.718 82.1932 42.47C81.928 42.222 81.8056 41.788 81.8056 41.2093V38.4193H81.0508V37.6753H81.8056V36.3733H82.6624V37.6753H83.9884V38.4193H82.6624V41.23C82.6624 41.5606 82.7236 41.788 82.846 41.912C82.9684 42.036 83.1724 42.098 83.4784 42.098H83.9884V42.0773Z" fill="#EAEAEA"/>
    <path d="M86.0685 35.7326C86.1705 35.6292 86.3133 35.5879 86.4969 35.5879C86.6805 35.5879 86.8029 35.6292 86.9253 35.7326C87.0273 35.8359 87.0885 35.9599 87.0885 36.1046C87.0885 36.2699 87.0273 36.3939 86.9253 36.4766C86.8233 36.5799 86.6805 36.6212 86.4969 36.6212C86.3133 36.6212 86.1909 36.5799 86.0685 36.4766C85.9665 36.3732 85.9053 36.2492 85.9053 36.1046C85.9053 35.9599 85.9461 35.8359 86.0685 35.7326ZM86.9049 37.6339V42.8212H86.0481V37.6339H86.9049Z" fill="#EAEAEA"/>
    <path d="M93.4116 38.1299C93.7788 38.5226 93.9624 39.0806 93.9624 39.8039V42.8213H93.1056V39.8866C93.1056 39.3699 92.9832 38.9773 92.718 38.6879C92.4528 38.4193 92.106 38.2746 91.6572 38.2746C91.188 38.2746 90.8208 38.4193 90.5352 38.7293C90.2496 39.0393 90.1068 39.4733 90.1068 40.0726V42.8213H89.25V37.6339H90.1068V38.8533C90.2292 38.4399 90.474 38.1093 90.8004 37.8819C91.1268 37.6546 91.5144 37.5513 91.9428 37.5513C92.5752 37.5513 93.0444 37.7579 93.4116 38.1299Z" fill="#EAEAEA"/>
    <path d="M99.6546 37.9439C100.001 38.1919 100.246 38.5226 100.369 38.9566V37.6339H101.225V42.9039C101.225 43.3793 101.123 43.8133 100.919 44.1853C100.715 44.5573 100.45 44.8466 100.083 45.0533C99.7158 45.2599 99.3078 45.3633 98.8182 45.3633C98.1246 45.3633 97.5738 45.1979 97.125 44.8673C96.6966 44.5366 96.411 44.0819 96.2886 43.5033H97.125C97.227 43.8546 97.4106 44.1233 97.6962 44.3299C97.9818 44.5366 98.3286 44.6193 98.757 44.6193C99.2262 44.6193 99.5934 44.4746 99.8994 44.1646C100.205 43.8753 100.348 43.4413 100.348 42.9039V41.4986C100.205 41.9119 99.981 42.2633 99.6342 42.5113C99.2874 42.7593 98.859 42.8833 98.3694 42.8833C97.9206 42.8833 97.5126 42.7799 97.1658 42.5526C96.819 42.3459 96.5334 42.0359 96.3294 41.6226C96.1254 41.2299 96.0234 40.7546 96.0234 40.2173C96.0234 39.6799 96.1254 39.2046 96.3294 38.8119C96.5334 38.4193 96.819 38.1093 97.1658 37.8819C97.5126 37.6753 97.9206 37.5513 98.3694 37.5513C98.8794 37.5719 99.3078 37.6959 99.6546 37.9439ZM97.3902 38.8533C97.0842 39.1839 96.921 39.6593 96.921 40.2379C96.921 40.8373 97.0842 41.2919 97.3902 41.6226C97.6962 41.9533 98.1246 42.1186 98.6346 42.1186C98.961 42.1186 99.267 42.0359 99.5322 41.8913C99.7974 41.7259 100.001 41.5193 100.144 41.2299C100.287 40.9406 100.369 40.6099 100.369 40.2379C100.369 39.8659 100.287 39.5353 100.144 39.2459C100.001 38.9566 99.7974 38.7293 99.5322 38.5846C99.267 38.4399 98.961 38.3573 98.6346 38.3573C98.1042 38.3366 97.6962 38.5019 97.3902 38.8533Z" fill="#EAEAEA"/>
    <path d="M17.8097 25.3167L12.9341 31.5993L16.1573 33.914C17.8709 35.2573 18.1361 37.7993 16.7489 39.5973C15.3413 41.4366 12.3833 41.7673 10.4453 40.3L5.44727 46.9546C10.6493 50.964 17.8301 50.8813 22.2161 46.7066C20.5229 44.764 19.1969 41.912 19.2173 38.9566C19.2377 35.6086 20.9105 32.7773 23.2769 30.814C22.2773 29.3673 19.4213 26.5773 17.8097 25.3167Z" fill="url(#paint0_linear)"/>
    <path d="M12.4229 17.3806L18.9509 22.5059C20.0117 21.1419 21.7457 20.7699 23.0716 21.5346L27.8248 15.2106C22.8268 11.7179 16.0541 12.6272 12.4229 17.3806Z" fill="url(#paint1_linear)"/>
    <path d="M28.7635 15.9546L23.9695 22.3199C24.8059 23.3946 24.8875 24.9239 24.0715 25.9986C23.5411 26.7013 22.6231 27.1766 21.7051 27.3006C22.5823 28.1686 23.5411 29.2433 24.2143 30.1733C25.9075 29.0366 27.5191 28.3753 29.9263 28.2099C30.8239 28.1479 31.9459 28.1066 32.8027 28.2719C34.6387 24.3039 32.8231 19.3853 28.7635 15.9546Z" fill="url(#paint2_linear)"/>
    <path d="M9.44541 34.1826L2.57061 28.7886C-1.42779 33.9966 -0.448593 41.5399 4.54941 46.1486L9.60861 39.4112C8.40501 37.8406 8.34381 35.6086 9.44541 34.1826Z" fill="url(#paint3_linear)"/>
    <path d="M26.1935 39.5971L20.1143 39.4111C20.1143 43.7925 24.7451 53.0511 36.3323 48.7525L35.7407 43.2345C27.7847 47.2438 26.2751 40.8371 26.1935 39.5971Z" fill="url(#paint4_linear)"/>
    <path d="M26.2959 38.6673L20.1147 38.4813C20.0127 34.038 25.4799 26.4533 36.3327 29.7807L35.7411 35.6707C29.7435 31.8267 26.3367 36.0013 26.2959 38.6673Z" fill="url(#paint5_linear)"/>
    <path d="M10.3824 40.2378L5.32324 46.8511C5.36404 46.8925 5.40484 46.9131 5.44564 46.9338L10.4436 40.2791C10.4232 40.2585 10.4028 40.2585 10.3824 40.2378Z" fill="url(#paint6_linear)"/>
    <path d="M9.68974 39.4938C9.66934 39.4731 9.64894 39.4318 9.62854 39.4111L4.56934 46.1485L4.58974 46.1691L9.68974 39.4938Z" fill="url(#paint7_linear)"/>
    <defs>
        <linearGradient id="paint0_linear" x1="5.32582" y1="37.5985" x2="23.2843" y2="37.5985" gradientUnits="userSpaceOnUse">
            <stop stop-color="#00B3C7"/>
            <stop offset="1" stop-color="#00749A"/>
        </linearGradient>
        <linearGradient id="paint1_linear" x1="12.4143" y1="17.81" x2="33.4624" y2="17.81" gradientUnits="userSpaceOnUse">
            <stop stop-color="#00B3C7"/>
            <stop offset="1" stop-color="#00749A"/>
        </linearGradient>
        <linearGradient id="paint2_linear" x1="12.3667" y1="23.0621" x2="33.5233" y2="23.0621" gradientUnits="userSpaceOnUse">
            <stop stop-color="#00B3C7"/>
            <stop offset="1" stop-color="#00749A"/>
        </linearGradient>
        <linearGradient id="paint3_linear" x1="0.0997185" y1="37.4602" x2="9.68097" y2="37.4602" gradientUnits="userSpaceOnUse">
            <stop stop-color="#00B3C7"/>
            <stop offset="1" stop-color="#00749A"/>
        </linearGradient>
        <linearGradient id="paint4_linear" x1="23.6846" y1="47.4746" x2="33.6322" y2="40.2106" gradientUnits="userSpaceOnUse">
            <stop stop-color="#00B3C7"/>
            <stop offset="1" stop-color="#00749A"/>
        </linearGradient>
        <linearGradient id="paint5_linear" x1="23.819" y1="30.8371" x2="33.9734" y2="38.2521" gradientUnits="userSpaceOnUse">
            <stop stop-color="#00B3C7"/>
            <stop offset="1" stop-color="#00749A"/>
        </linearGradient>
        <linearGradient id="paint6_linear" x1="5.3242" y1="43.5873" x2="23.2826" y2="43.5873" gradientUnits="userSpaceOnUse">
            <stop stop-color="#00B3C7"/>
            <stop offset="1" stop-color="#00749A"/>
        </linearGradient>
        <linearGradient id="paint7_linear" x1="0.0990426" y1="42.7804" x2="9.68031" y2="42.7804" gradientUnits="userSpaceOnUse">
            <stop stop-color="#00B3C7"/>
            <stop offset="1" stop-color="#00749A"/>
        </linearGradient>
    </defs>
</svg>
