<svg xmlns="http://www.w3.org/2000/svg" width="512" height="512" viewBox="0 0 64 64">
    <path d="M39 29h2v2h2v-2h2c1.103 0 2-.897 2-2v-4c0-1.103-.897-2-2-2h-6v-4h6v2h2v-2c0-1.103-.897-2-2-2h-2v-2h-2v2h-2c-1.103 0-2 .897-2 2v4c0 1.103.897 2 2 2h6v4h-6v-2h-2v2c0 1.103.897 2 2 2z"/>
    <path d="M42 1c-11.58 0-21 9.42-21 21 0 4.409 1.372 8.5 3.703 11.883L21.5 37.086l-1.499-1.499-17.244 17.17C1.624 53.891 1 55.397 1 57s.624 3.109 1.757 4.243S5.397 63 7 63s3.109-.624 4.244-1.759l17.168-17.243-1.498-1.498 3.203-3.203A20.874 20.874 0 0 0 42 43c11.58 0 21-9.42 21-21S53.58 1 42 1zM29 22c0-7.168 5.832-13 13-13s13 5.832 13 13-5.832 13-13 13a12.95 12.95 0 0 1-4-.641V34a5.787 5.787 0 0 0-1.707-4.121l-2.172-2.172A5.787 5.787 0 0 0 30 26c-.119 0-.236.01-.354.017A12.967 12.967 0 0 1 29 22zm3.707 7.121l2.172 2.172A3.804 3.804 0 0 1 36 34v.391a3.85 3.85 0 0 1-.766 2.297l-1.717 2.289a19.115 19.115 0 0 1-8.195-7.885l1.971-1.971c1.446-1.446 3.968-1.446 5.414 0zM16.992 41.406l5.602 5.602-1.582 1.589-5.609-5.609zM9.829 59.829c-1.56 1.56-4.098 1.56-5.657 0s-1.56-4.098-.001-5.656l9.816-9.773 5.615 5.615zm14.176-14.238l-5.596-5.596 1.589-1.583 5.589 5.589zm1.495-4.505L22.914 38.5l3.012-3.012c.786.935 1.651 1.8 2.586 2.586zM42 41c-2.322 0-4.538-.439-6.596-1.205l1.43-1.907c.351-.468.62-.991.816-1.539 1.405.425 2.862.651 4.35.651 8.271 0 15-6.729 15-15S50.271 7 42 7s-15 6.729-15 15c0 1.533.242 3.032.694 4.476a5.824 5.824 0 0 0-1.815 1.231l-1.463 1.463A18.87 18.87 0 0 1 23 22c0-10.477 8.523-19 19-19s19 8.523 19 19-8.523 19-19 19z"/>
    <path d="M30 32a.999.999 0 1 0-.707-1.707A.999.999 0 0 0 30 32zM33 35a.999.999 0 1 0-.707-1.707A.999.999 0 0 0 33 35z"/>
</svg>
