<svg xmlns="http://www.w3.org/2000/svg" viewBox="0 0 512 512">
    <path d="M458.667 0H53.333C23.893.035.035 23.893 0 53.333v405.333C.035 488.107 23.893 511.965 53.333 512h405.333c29.441-.035 53.298-23.893 53.333-53.333V53.333C511.965 23.893 488.107.035 458.667 0zm32 458.667c0 17.673-14.327 32-32 32H53.333c-17.673 0-32-14.327-32-32V53.333c0-17.673 14.327-32 32-32h405.333c17.673 0 32 14.327 32 32v405.334z"/>
    <path d="M42.667 85.333h426.667v21.333H42.667zM53.333 42.667h21.333V64H53.333zM96 42.667h21.333V64H96zM437.333 42.667h21.333V64h-21.333zM416 149.333H96c-11.782 0-21.333 9.551-21.333 21.333v42.667c0 11.782 9.551 21.333 21.333 21.333h320c11.782 0 21.333-9.551 21.333-21.333v-42.667c0-11.781-9.551-21.333-21.333-21.333zm0 64H96v-42.667h320v42.667zM416 266.667H96c-11.782 0-21.333 9.551-21.333 21.333v42.667C74.667 342.449 84.218 352 96 352h320c11.782 0 21.333-9.551 21.333-21.333V288c0-11.782-9.551-21.333-21.333-21.333zm0 64H96V288h320v42.667zM170.667 384H85.333c-5.891 0-10.667 4.776-10.667 10.667v32C74.667 438.449 84.218 448 96 448h64c11.782 0 21.333-9.551 21.333-21.333v-32c0-5.891-4.775-10.667-10.666-10.667zM160 426.667H96v-21.333h64v21.333zM298.667 384h-85.333c-5.891 0-10.667 4.776-10.667 10.667v32c0 11.782 9.551 21.333 21.333 21.333h64c11.782 0 21.333-9.551 21.333-21.333v-32c0-5.891-4.775-10.667-10.666-10.667zM288 426.667h-64v-21.333h64v21.333zM416 384h21.333v21.333H416zM373.333 384h21.333v21.333h-21.333zM341.333 426.667h96V448h-96z"/>
</svg>
