<svg xmlns="http://www.w3.org/2000/svg" viewBox="0 0 469.333 469.333">
    <path d="M448 243.482V42.667C448 19.135 428.854 0 405.333 0H42.667C19.146 0 0 19.135 0 42.667v362.667C0 428.865 19.146 448 42.667 448h200.815c22.414 13.452 48.533 21.333 76.518 21.333 82.333 0 149.333-66.99 149.333-149.333 0-27.987-7.881-54.105-21.333-76.518zM234.667 21.333h170.667c11.771 0 21.333 9.573 21.333 21.333v173.025c-27.13-27.738-64.9-45.025-106.667-45.025-31.727 0-61.117 10.021-85.333 26.961V21.333zM21.333 42.667c0-11.76 9.563-21.333 21.333-21.333h170.667v192h-192V42.667zm21.334 384c-11.771 0-21.333-9.573-21.333-21.333V234.667h176.294c-16.939 24.215-26.961 53.605-26.961 85.333 0 41.77 17.288 79.538 45.025 106.667H42.667zM320 448c-70.583 0-128-57.417-128-128s57.417-128 128-128 128 57.417 128 128-57.417 128-128 128z"/>
    <path d="M160 106.667h-32v-32A10.66 10.66 0 0 0 117.333 64a10.66 10.66 0 0 0-10.667 10.667v32h-32a10.66 10.66 0 0 0-10.667 10.667A10.662 10.662 0 0 0 74.667 128h32v32a10.66 10.66 0 0 0 10.667 10.667A10.66 10.66 0 0 0 128.001 160v-32h32a10.66 10.66 0 0 0 10.667-10.667A10.662 10.662 0 0 0 160 106.667zM384 117.333a10.66 10.66 0 0 0-10.667-10.667H288a10.66 10.66 0 0 0-10.667 10.667A10.66 10.66 0 0 0 288 128h85.333A10.66 10.66 0 0 0 384 117.333zM156.875 291.125c-4.167-4.167-10.917-4.167-15.083 0l-24.458 24.458-24.458-24.458c-4.167-4.167-10.917-4.167-15.083 0-4.167 4.167-4.167 10.917 0 15.083l24.458 24.458-24.458 24.458c-4.167 4.167-4.167 10.917 0 15.083a10.634 10.634 0 0 0 7.542 3.125c2.729 0 5.458-1.042 7.542-3.125l24.458-24.458 24.458 24.458a10.634 10.634 0 0 0 7.542 3.125c2.729 0 5.458-1.042 7.542-3.125 4.167-4.167 4.167-10.917 0-15.083l-24.458-24.458 24.458-24.458c4.165-4.166 4.165-10.916-.002-15.083zM373.333 277.333H266.667A10.66 10.66 0 0 0 256 288a10.66 10.66 0 0 0 10.667 10.667h106.667A10.66 10.66 0 0 0 384.001 288a10.662 10.662 0 0 0-10.668-10.667zM373.333 341.333H266.667A10.66 10.66 0 0 0 256 352a10.66 10.66 0 0 0 10.667 10.667h106.667A10.66 10.66 0 0 0 384.001 352a10.662 10.662 0 0 0-10.668-10.667z"/>
</svg>
