<svg xmlns="http://www.w3.org/2000/svg" width="640" height="640" viewBox="0 -36 480 479">
    <path d="M408 80.5H296v-8c-.047-39.746-32.254-71.953-72-72H72C32.254.547.047 32.754 0 72.5v96c.047 39.746 32.254 71.953 72 72h8v64c0 3.234 1.95 6.152 4.938 7.39s6.43.551 8.718-1.734l69.656-69.656H184v8c.047 39.746 32.254 71.953 72 72h44.688l85.656 85.656A8 8 0 0 0 400 400.5v-80h8c39.746-.047 71.953-32.254 72-72v-96c-.047-39.746-32.254-71.953-72-72zm-248 144a8.001 8.001 0 0 0-5.656 2.344L96 285.188V232.5a8 8 0 0 0-8-8H72c-30.914-.035-55.965-25.086-56-56v-96c.035-30.914 25.086-55.965 56-56h152c30.914.035 55.965 25.086 56 56v8h-24c-39.746.047-71.953 32.254-72 72v72zm304 24c-.035 30.914-25.086 55.965-56 56h-16a8 8 0 0 0-8 8v68.688l-74.344-74.344A8.001 8.001 0 0 0 304 304.5h-48c-30.914-.035-55.965-25.086-56-56v-96c.035-30.914 25.086-55.965 56-56h152c30.914.035 55.965 25.086 56 56zm0 0"/>
    <path d="M424 144.5H240a8 8 0 0 0 0 16h184a8 8 0 0 0 0-16zm0 0M424 192.5H240a8 8 0 0 0 0 16h184a8 8 0 0 0 0-16zm0 0M424 240.5H240a8 8 0 0 0 0 16h184a8 8 0 0 0 0-16zm0 0M48 80.5h168a8 8 0 0 0 0-16H48a8 8 0 0 0 0 16zm0 0M168 112.5H48a8 8 0 0 0 0 16h120a8 8 0 0 0 0-16zm0 0M160 160.5H48a8 8 0 0 0 0 16h112a8 8 0 0 0 0-16zm0 0"/>
</svg>
