<svg xmlns="http://www.w3.org/2000/svg" viewBox="0 0 469.162 469.162">
    <path d="M234.581 363.227c-26.712-.025-49.4 19.548-53.29 45.976h106.58c-3.89-26.428-26.578-46.002-53.29-45.976zM462.891 245.676l-61.649-134.269h28.735a7.837 7.837 0 0 0 0-15.674H278.989c-5.352-24.526-29.572-40.07-54.098-34.718a45.453 45.453 0 0 0-34.718 34.718H39.185a7.837 7.837 0 0 0 0 15.674H67.92L6.271 245.676a7.835 7.835 0 0 0-6.269 7.837c-.001 44.521 35.938 80.692 80.457 80.98 44.404-.281 80.411-36.056 80.98-80.457a9.406 9.406 0 0 0-6.792-8.882L92.998 111.406h96.653a45.977 45.977 0 0 0 34.482 37.094v198.008h15.673V149.545c20.226-2.507 36.387-18.03 39.706-38.139h96.653l-61.649 133.747a8.882 8.882 0 0 0-6.792 8.359c-.001 44.521 35.938 80.692 80.457 80.98 44.488-.563 80.416-36.491 80.98-80.98a7.837 7.837 0 0 0-6.27-7.836zm-325.485 1.567H23.512L80.459 124.99l56.947 122.253zm194.351 0l56.947-122.253 56.947 122.253H331.757z"/>
</svg>
