<svg xmlns="http://www.w3.org/2000/svg" width="512" height="512" viewBox="0 0 64 64">
    <path d="M50 7h-7.214C40.961 3.444 37.264 1 33 1s-7.961 2.444-9.786 6H16c-3.859 0-7 3.141-7 7v44c0 2.757 2.243 5 5 5h38c2.757 0 5-2.243 5-5V14c0-3.859-3.141-7-7-7zm-1 6c1.103 0 2 .897 2 2v10H15V15c0-1.103.897-2 2-2h5.051c.507 5.598 5.221 10 10.949 10s10.442-4.402 10.949-10zM33 3c4.963 0 9 4.037 9 9s-4.037 9-9 9-9-4.037-9-9 4.037-9 9-9zm22 55c0 1.654-1.346 3-3 3H14c-1.654 0-3-1.346-3-3V14c0-2.757 2.243-5 5-5h6.426a10.99 10.99 0 0 0-.376 2H17c-2.206 0-4 1.794-4 4v10c0 1.103.897 2 2 2h36c1.103 0 2-.897 2-2V15c0-2.206-1.794-4-4-4h-5.051a10.821 10.821 0 0 0-.376-2H50c2.757 0 5 2.243 5 5z"/>
    <path d="M51 29H15c-1.103 0-2 .897-2 2v26c0 1.103.897 2 2 2h36c1.103 0 2-.897 2-2V31c0-1.103-.897-2-2-2zM15 57V31h36l.002 26z"/>
    <path d="M20 49c-1.654 0-3 1.346-3 3s1.346 3 3 3 3-1.346 3-3-1.346-3-3-3zm0 4a1 1 0 1 1 0-2 1 1 0 0 1 0 2zM28 49c-1.654 0-3 1.346-3 3s1.346 3 3 3 3-1.346 3-3-1.346-3-3-3zm0 4a1 1 0 1 1 0-2 1 1 0 0 1 0 2zM36 49c-1.654 0-3 1.346-3 3s1.346 3 3 3 3-1.346 3-3-1.346-3-3-3zm0 4a1 1 0 1 1 0-2 1 1 0 0 1 0 2zM20 41c-1.654 0-3 1.346-3 3s1.346 3 3 3 3-1.346 3-3-1.346-3-3-3zm0 4a1 1 0 1 1 0-2 1 1 0 0 1 0 2zM28 41c-1.654 0-3 1.346-3 3s1.346 3 3 3 3-1.346 3-3-1.346-3-3-3zm0 4a1 1 0 1 1 0-2 1 1 0 0 1 0 2zM36 41c-1.654 0-3 1.346-3 3s1.346 3 3 3 3-1.346 3-3-1.346-3-3-3zm0 4a1 1 0 1 1 0-2 1 1 0 0 1 0 2zM20 33c-1.654 0-3 1.346-3 3s1.346 3 3 3 3-1.346 3-3-1.346-3-3-3zm0 4a1 1 0 1 1 0-2 1 1 0 0 1 0 2zM28 33c-1.654 0-3 1.346-3 3s1.346 3 3 3 3-1.346 3-3-1.346-3-3-3zm0 4a1 1 0 1 1 0-2 1 1 0 0 1 0 2zM36 33c-1.654 0-3 1.346-3 3s1.346 3 3 3 3-1.346 3-3-1.346-3-3-3zm0 4a1 1 0 1 1 0-2 1 1 0 0 1 0 2zM46 33h-2c-1.654 0-3 1.346-3 3s1.346 3 3 3h2c1.654 0 3-1.346 3-3s-1.346-3-3-3zm0 4h-2a1 1 0 0 1 0-2h2a1 1 0 0 1 0 2zM46 41h-2c-1.654 0-3 1.346-3 3v8c0 1.654 1.346 3 3 3h2c1.654 0 3-1.346 3-3v-8c0-1.654-1.346-3-3-3zm1 11a1 1 0 0 1-1 1h-2a1 1 0 0 1-1-1v-8a1 1 0 0 1 1-1h2a1 1 0 0 1 1 1zM27.289 16.294l9.998-9.998 1.414 1.414-9.998 9.998z"/>
    <path d="M36 12c-1.654 0-3 1.346-3 3s1.346 3 3 3 3-1.346 3-3-1.346-3-3-3zm0 4a1 1 0 1 1 0-2 1 1 0 0 1 0 2zM30 12c1.654 0 3-1.346 3-3s-1.346-3-3-3-3 1.346-3 3 1.346 3 3 3zm0-4a1 1 0 1 1 0 2 1 1 0 0 1 0-2z"/>
</svg>
