<svg xmlns="http://www.w3.org/2000/svg" width="512pt" height="512pt" viewBox="0 0 512.00042 512">
    <path d="M334.434 325.395c6.296-9.079 4.039-21.54-5.036-27.833L276 260.528v-56.53h43.813c10.019 0 19.39-4.458 25.714-12.231 6.352-7.805 8.82-17.946 6.77-27.817-5.676-27.328-22.676-50.105-45.422-63.851C314.488 89.684 319 76.859 319 63c0-34.738-28.262-63-63-63s-63 28.262-63 63c0 13.86 4.512 26.684 12.129 37.098-22.746 13.746-39.746 36.523-45.426 63.855-2.047 9.867.418 20.008 6.774 27.813 6.324 7.773 15.695 12.23 25.71 12.23H236v56.863l-51.824 38.008c-8.906 6.531-10.832 19.047-4.301 27.957 3.918 5.344 9.988 8.172 16.145 8.172 4.101 0 8.246-1.262 11.808-3.875l48.5-35.562 50.277 34.87a19.905 19.905 0 0 0 11.38 3.567c6.331 0 12.566-3.004 16.449-8.601zM256 40c12.684 0 23 10.316 23 23 0 12.68-10.316 23-23 23s-23-10.32-23-23c0-12.684 10.316-23 23-23zm-.523 85.996h1.046c24.418 0 46.07 15.559 54.301 38H201.176c8.234-22.441 29.883-38 54.3-38zm255.82 345.953c-2.246-10.812-12.828-17.762-23.649-15.515-8.062 1.671-13.972 7.98-15.53 15.558H360.175c8.23-22.437 29.883-38 54.3-38h1.047c.18 0 .352-.02.528-.023 34.254-.567 61.949-28.59 61.949-62.973 0-34.738-28.262-63-63-63s-63 28.262-63 63c0 13.86 4.512 26.684 12.125 37.098-22.746 13.742-39.746 36.523-45.422 63.855-2.05 9.867.418 20.008 6.77 27.813a33.022 33.022 0 0 0 25.714 12.23h127.625a33.022 33.022 0 0 0 25.715-12.23c6.352-7.805 8.817-17.942 6.77-27.813zM415 347.996c12.68 0 23 10.316 23 23 0 12.68-10.32 23-23 23-12.684 0-23-10.32-23-23 0-12.684 10.316-23 23-23zm-267.125 60.098C155.492 397.68 160 384.855 160 370.996c0-34.738-28.262-63-62.996-63-34.738 0-63 28.262-63 63 0 13.86 4.512 26.684 12.125 37.098C23.383 421.836 6.383 444.617.707 471.949c-2.05 9.867.418 20.008 6.77 27.813 6.324 7.773 15.695 12.23 25.714 12.23h127.625c10.016 0 19.391-4.457 25.711-12.23 6.356-7.805 8.82-17.946 6.774-27.817-5.68-27.328-22.68-50.11-45.426-63.851zm-50.871-60.098c12.68 0 22.996 10.316 22.996 23 0 12.68-10.316 23-22.996 23-12.684 0-23-10.32-23-23 0-12.684 10.316-23 23-23zM42.18 471.992c8.23-22.437 29.883-38 54.3-38h1.047c24.418 0 46.067 15.559 54.301 38zm0 0"/>
</svg>
