<svg id="_x33_0" enable-background="new 0 0 64 64" height="512" viewBox="0 0 64 64" width="512" xmlns="http://www.w3.org/2000/svg"><path d="m50 7h-7.214c-1.825-3.556-5.522-6-9.786-6s-7.961 2.444-9.786 6h-7.214c-3.859 0-7 3.141-7 7v44c0 2.757 2.243 5 5 5h38c2.757 0 5-2.243 5-5v-44c0-3.859-3.141-7-7-7zm-1 6c1.103 0 2 .897 2 2v10h-36v-10c0-1.103.897-2 2-2h5.051c.507 5.598 5.221 10 10.949 10s10.442-4.402 10.949-10zm-16-10c4.963 0 9 4.037 9 9s-4.037 9-9 9-9-4.037-9-9 4.037-9 9-9zm22 55c0 1.654-1.346 3-3 3h-38c-1.654 0-3-1.346-3-3v-44c0-2.757 2.243-5 5-5h6.426c-.183.645-.313 1.312-.376 2h-5.05c-2.206 0-4 1.794-4 4v10c0 1.103.897 2 2 2h36c1.103 0 2-.897 2-2v-10c0-2.206-1.794-4-4-4h-5.051c-.062-.688-.192-1.355-.376-2h6.427c2.757 0 5 2.243 5 5z"/><path d="m51 29h-36c-1.103 0-2 .897-2 2v26c0 1.103.897 2 2 2h36c1.103 0 2-.897 2-2v-26c0-1.103-.897-2-2-2zm-36 28v-26h36l.002 26z"/><path d="m20 49c-1.654 0-3 1.346-3 3s1.346 3 3 3 3-1.346 3-3-1.346-3-3-3zm0 4c-.552 0-1-.448-1-1s.448-1 1-1 1 .448 1 1-.448 1-1 1z"/><path d="m28 49c-1.654 0-3 1.346-3 3s1.346 3 3 3 3-1.346 3-3-1.346-3-3-3zm0 4c-.552 0-1-.448-1-1s.448-1 1-1 1 .448 1 1-.448 1-1 1z"/><path d="m36 49c-1.654 0-3 1.346-3 3s1.346 3 3 3 3-1.346 3-3-1.346-3-3-3zm0 4c-.552 0-1-.448-1-1s.448-1 1-1 1 .448 1 1-.448 1-1 1z"/><path d="m20 41c-1.654 0-3 1.346-3 3s1.346 3 3 3 3-1.346 3-3-1.346-3-3-3zm0 4c-.552 0-1-.448-1-1s.448-1 1-1 1 .448 1 1-.448 1-1 1z"/><path d="m28 41c-1.654 0-3 1.346-3 3s1.346 3 3 3 3-1.346 3-3-1.346-3-3-3zm0 4c-.552 0-1-.448-1-1s.448-1 1-1 1 .448 1 1-.448 1-1 1z"/><path d="m36 41c-1.654 0-3 1.346-3 3s1.346 3 3 3 3-1.346 3-3-1.346-3-3-3zm0 4c-.552 0-1-.448-1-1s.448-1 1-1 1 .448 1 1-.448 1-1 1z"/><path d="m20 33c-1.654 0-3 1.346-3 3s1.346 3 3 3 3-1.346 3-3-1.346-3-3-3zm0 4c-.552 0-1-.448-1-1s.448-1 1-1 1 .448 1 1-.448 1-1 1z"/><path d="m28 33c-1.654 0-3 1.346-3 3s1.346 3 3 3 3-1.346 3-3-1.346-3-3-3zm0 4c-.552 0-1-.448-1-1s.448-1 1-1 1 .448 1 1-.448 1-1 1z"/><path d="m36 33c-1.654 0-3 1.346-3 3s1.346 3 3 3 3-1.346 3-3-1.346-3-3-3zm0 4c-.552 0-1-.448-1-1s.448-1 1-1 1 .448 1 1-.448 1-1 1z"/><path d="m46 33h-2c-1.654 0-3 1.346-3 3s1.346 3 3 3h2c1.654 0 3-1.346 3-3s-1.346-3-3-3zm0 4h-2c-.552 0-1-.448-1-1s.448-1 1-1h2c.552 0 1 .448 1 1s-.448 1-1 1z"/><path d="m46 41h-2c-1.654 0-3 1.346-3 3v8c0 1.654 1.346 3 3 3h2c1.654 0 3-1.346 3-3v-8c0-1.654-1.346-3-3-3zm1 11c0 .552-.448 1-1 1h-2c-.552 0-1-.448-1-1v-8c0-.552.448-1 1-1h2c.552 0 1 .448 1 1z"/><path d="m25.929 11h14.142v2h-14.142z" transform="matrix(.707 -.707 .707 .707 1.18 26.849)"/><path d="m36 12c-1.654 0-3 1.346-3 3s1.346 3 3 3 3-1.346 3-3-1.346-3-3-3zm0 4c-.552 0-1-.448-1-1s.448-1 1-1 1 .448 1 1-.448 1-1 1z"/><path d="m30 12c1.654 0 3-1.346 3-3s-1.346-3-3-3-3 1.346-3 3 1.346 3 3 3zm0-4c.552 0 1 .448 1 1s-.448 1-1 1-1-.448-1-1 .448-1 1-1z"/></svg>