<svg width="16" height="18" viewBox="0 0 12 14" fill="none" xmlns="http://www.w3.org/2000/svg">
<path d="M11.1134 9.70337C10.6237 9.70337 10.2267 10.1253 10.2267 10.6459V12.1149H1.7732V10.6459C1.7732 10.1254 1.37626 9.70337 0.886602 9.70337C0.396948 9.70337 0 10.1253 0 10.6459V13.0574C0 13.5779 0.396948 14 0.886602 14H11.1134C11.603 14 12 13.5779 12 13.0574V10.6459C12 10.1253 11.603 9.70337 11.1134 9.70337Z" fill="black"/>
<path d="M5.73292 10.7062C5.88061 10.8631 6.12052 10.8631 6.26805 10.7062L9.37522 7.40321C9.46575 7.30698 9.49264 7.16243 9.44369 7.03633C9.39473 6.91075 9.27962 6.82888 9.15134 6.82888H7.69241V0.735535C7.69241 0.32909 7.38284 0 7.00057 0H5.00088C4.61864 0 4.30904 0.329062 4.30904 0.735535V6.82888H2.84961C2.72146 6.82888 2.60635 6.91072 2.55739 7.03633C2.50844 7.16243 2.53536 7.30698 2.62575 7.40321L5.73292 10.7062Z" fill="black"/>
</svg>
