<svg width="16" height="18" viewBox="0 0 16 18" fill="none" xmlns="http://www.w3.org/2000/svg">
<path d="M14.8178 12.4758C14.165 12.4758 13.6356 13.0183 13.6356 13.6875V15.5763H2.36427V13.6875C2.36427 13.0183 1.83501 12.4758 1.18214 12.4758C0.529264 12.4758 0 13.0183 0 13.6875V16.7881C0 17.4573 0.529264 18 1.18214 18H14.8179C15.4707 18 16 17.4573 16 16.7881V13.6875C16 13.0183 15.4707 12.4758 14.8178 12.4758Z" fill="white"/>
<path d="M7.6439 13.7651C7.84081 13.9668 8.1607 13.9668 8.3574 13.7651L12.5003 9.51842C12.621 9.39469 12.6569 9.20884 12.5916 9.04672C12.5263 8.88525 12.3728 8.77999 12.2018 8.77999H10.2566V0.945688C10.2566 0.423116 9.84378 0 9.33409 0H6.66784C6.15819 0 5.74538 0.423079 5.74538 0.945688V8.77999H3.79948C3.62861 8.77999 3.47513 8.88521 3.40986 9.04672C3.34458 9.20884 3.38048 9.39469 3.501 9.51842L7.6439 13.7651Z" fill="white"/>
<style>
    @media only screen and (max-width: 770px){
    width:10px;
    height:10px;
    }
</style>
</svg>
