<?xml version="1.0" encoding="utf-8"?>
<!-- Generator: Adobe Illustrator 21.0.0, SVG Export Plug-In . SVG Version: 6.00 Build 0)  -->
<svg version="1.1" id="Layer_1" xmlns="http://www.w3.org/2000/svg" xmlns:xlink="http://www.w3.org/1999/xlink" x="0px" y="0px"
	 viewBox="0 0 512 512" style="enable-background:new 0 0 512 512;" xml:space="preserve">
<style type="text/css">
	.st0{fill:url(#SVGID_1_);}
	.st1{fill:url(#SVGID_2_);}
	.st2{fill:url(#SVGID_3_);}
	.st3{fill:url(#SVGID_4_);}
</style>
<g>
	<linearGradient id="SVGID_1_" gradientUnits="userSpaceOnUse" x1="0" y1="256" x2="436.582" y2="256">
		<stop  offset="0" style="stop-color:#00B2C6"/>
		<stop  offset="1" style="stop-color:#007399"/>
	</linearGradient>
	<path class="st0" d="M426.6,75.4h-67.3c-52.4,0-95,42.6-95,95v56.8h-53.3c-5.5,0-10,4.5-10,10v76.9c0,5.5,4.5,10,10,10h53.3V492H30
		c-5.5,0-10-4.5-10-10V30c0-5.5,4.5-10,10-10h20c5.5,0,10-4.5,10-10S55.5,0,50,0H30C13.5,0,0,13.5,0,30v452c0,16.5,13.5,30,30,30
		h244.2c5.5,0,10-4.5,10-10V314.2c0-5.5-4.5-10-10-10H221v-56.9h53.3c5.5,0,10-4.5,10-10v-66.8c0-41.4,33.7-75,75-75h57.3v56.9
		h-57.3c-9.8,0-18.1,8.3-18.1,18.1v66.8c0,5.5,4.5,10,10,10h64l-7.5,56.9h-56.5c-5.5,0-10,4.5-10,10V502c0,5.5,4.5,10,10,10H382
		c5.5,0,10-4.5,10-10s-4.5-10-10-10h-20.8V324.2h55.3c5,0,9.3-3.7,9.9-8.7l10.1-76.9c0.4-2.9-0.5-5.7-2.4-7.9
		c-1.9-2.2-4.6-3.4-7.5-3.4h-65.4v-54.9h65.4c5.5,0,10-4.5,10-10V85.4C436.6,79.9,432.1,75.4,426.6,75.4z"/>
	<linearGradient id="SVGID_2_" gradientUnits="userSpaceOnUse" x1="120" y1="256" x2="512" y2="256">
		<stop  offset="0" style="stop-color:#00B2C6"/>
		<stop  offset="1" style="stop-color:#007399"/>
	</linearGradient>
	<path class="st1" d="M482,0H130c-5.5,0-10,4.5-10,10s4.5,10,10,10h352c5.5,0,10,4.5,10,10v452c0,5.5-4.5,10-10,10h-20
		c-5.5,0-10,4.5-10,10s4.5,10,10,10h20c16.5,0,30-13.5,30-30V30C512,13.5,498.5,0,482,0z"/>
	<linearGradient id="SVGID_3_" gradientUnits="userSpaceOnUse" x1="412" y1="502" x2="432.0039" y2="502">
		<stop  offset="0" style="stop-color:#00B2C6"/>
		<stop  offset="1" style="stop-color:#007399"/>
	</linearGradient>
	<path class="st2" d="M422,492L422,492c-5.5,0-10,4.5-10,10s4.5,10,10,10s10-4.5,10-10S427.5,492,422,492z"/>
	<linearGradient id="SVGID_4_" gradientUnits="userSpaceOnUse" x1="80" y1="10" x2="100.0039" y2="10">
		<stop  offset="0" style="stop-color:#00B2C6"/>
		<stop  offset="1" style="stop-color:#007399"/>
	</linearGradient>
	<path class="st3" d="M90,20c5.5,0,10-4.5,10-10S95.5,0,90,0h0c-5.5,0-10,4.5-10,10S84.5,20,90,20z"/>
</g>
</svg>
