<?xml version="1.0" encoding="utf-8"?>
<!-- Generator: Adobe Illustrator 21.0.0, SVG Export Plug-In . SVG Version: 6.00 Build 0)  -->
<svg version="1.1" id="_x33_0" xmlns="http://www.w3.org/2000/svg" xmlns:xlink="http://www.w3.org/1999/xlink" x="0px" y="0px"
	 viewBox="0 0 512 512" style="enable-background:new 0 0 512 512;" xml:space="preserve">
<style type="text/css">
	.st0{fill:url(#SVGID_1_);}
	.st1{fill:url(#SVGID_2_);}
	.st2{fill:url(#SVGID_3_);}
	.st3{fill:url(#SVGID_4_);}
</style>
<linearGradient id="SVGID_1_" gradientUnits="userSpaceOnUse" x1="296" y1="176" x2="376" y2="176">
	<stop  offset="0" style="stop-color:#00B2C6"/>
	<stop  offset="1" style="stop-color:#007399"/>
</linearGradient>
<path class="st0" d="M312,232h16v16h16v-16h16c8.8,0,16-7.2,16-16v-32c0-8.8-7.2-16-16-16h-48v-32h48v16h16v-16c0-8.8-7.2-16-16-16
	h-16v-16h-16v16h-16c-8.8,0-16,7.2-16,16v32c0,8.8,7.2,16,16,16h48v32h-48v-16h-16v16C296,224.8,303.2,232,312,232z"/>
<linearGradient id="SVGID_2_" gradientUnits="userSpaceOnUse" x1="8" y1="256" x2="504" y2="256">
	<stop  offset="0" style="stop-color:#00B2C6"/>
	<stop  offset="1" style="stop-color:#007399"/>
</linearGradient>
<path class="st1" d="M336,8c-92.6,0-168,75.4-168,168c0,35.3,11,68,29.6,95.1L172,296.7l-12-12l-138,137.4C13,431.1,8,443.2,8,456
	s5,24.9,14.1,33.9S43.2,504,56,504s24.9-5,34-14.1L227.3,352l-12-12l25.6-25.6C268,333,300.7,344,336,344c92.6,0,168-75.4,168-168
	S428.6,8,336,8L336,8z M232,176c0-57.3,46.7-104,104-104s104,46.7,104,104s-46.7,104-104,104c-11,0-21.7-1.8-32-5.1V272
	c0-12.5-4.8-24.2-13.7-33L273,221.7c-8.8-8.8-20.5-13.7-33-13.7c-1,0-1.9,0.1-2.8,0.1C233.8,197.8,232,187,232,176L232,176z
	 M261.7,233l17.4,17.4c5.8,5.8,9,13.5,9,21.7v3.1c0,6.6-2.2,13.1-6.1,18.4l-13.7,18.3c-27.7-13.9-50.7-35.9-65.6-63.1l15.8-15.8
	C229.9,221.4,250.1,221.4,261.7,233L261.7,233z M135.9,331.2l44.8,44.8l-12.7,12.7l-44.9-44.9L135.9,331.2z M78.6,478.6
	c-12.5,12.5-32.8,12.5-45.3,0s-12.5-32.8,0-45.2l78.5-78.2l44.9,44.9L78.6,478.6z M192,364.7L147.3,320l12.7-12.7l44.7,44.7
	L192,364.7z M204,328.7L183.3,308l24.1-24.1c6.3,7.5,13.2,14.4,20.7,20.7L204,328.7z M336,328c-18.6,0-36.3-3.5-52.8-9.6l11.4-15.3
	c2.8-3.7,5-7.9,6.5-12.3c11.2,3.4,22.9,5.2,34.8,5.2c66.2,0,120-53.8,120-120S402.2,56,336,56s-120,53.8-120,120
	c0,12.3,1.9,24.3,5.6,35.8c-5.4,2.3-10.3,5.6-14.5,9.8l-11.7,11.7c-7.3-17.7-11.3-37.1-11.3-57.4c0-83.8,68.2-152,152-152
	s152,68.2,152,152S419.8,328,336,328L336,328z"/>
<linearGradient id="SVGID_3_" gradientUnits="userSpaceOnUse" x1="231.998" y1="248" x2="248.002" y2="248">
	<stop  offset="0" style="stop-color:#00B2C6"/>
	<stop  offset="1" style="stop-color:#007399"/>
</linearGradient>
<path class="st2" d="M240,256c2,0,4.1-0.8,5.7-2.3c3.1-3.1,3.1-8.2,0-11.3c-1.6-1.6-3.6-2.3-5.7-2.3s-4.1,0.8-5.7,2.3
	c-3.1,3.1-3.1,8.2,0,11.3C235.9,255.2,238,256,240,256z"/>
<linearGradient id="SVGID_4_" gradientUnits="userSpaceOnUse" x1="255.998" y1="272" x2="272.002" y2="272">
	<stop  offset="0" style="stop-color:#00B2C6"/>
	<stop  offset="1" style="stop-color:#007399"/>
</linearGradient>
<path class="st3" d="M264,280c2,0,4.1-0.8,5.7-2.3c3.1-3.1,3.1-8.2,0-11.3c-1.6-1.6-3.6-2.3-5.7-2.3s-4.1,0.8-5.7,2.3
	c-3.1,3.1-3.1,8.2,0,11.3C259.9,279.2,262,280,264,280z"/>
</svg>
