<?xml version="1.0" encoding="utf-8"?>
<!-- Generator: Adobe Illustrator 21.0.0, SVG Export Plug-In . SVG Version: 6.00 Build 0)  -->
<svg version="1.1" id="Capa_1" xmlns="http://www.w3.org/2000/svg" xmlns:xlink="http://www.w3.org/1999/xlink" x="0px" y="0px"
	 viewBox="0 0 512 512" style="enable-background:new 0 0 512 512;" xml:space="preserve">
<style type="text/css">
	.st0{fill:url(#SVGID_1_);}
	.st1{fill:url(#SVGID_2_);}
	.st2{fill:url(#SVGID_3_);}
	.st3{fill:url(#SVGID_4_);}
	.st4{fill:url(#SVGID_5_);}
	.st5{fill:url(#SVGID_6_);}
	.st6{fill:url(#SVGID_7_);}
	.st7{fill:url(#SVGID_8_);}
	.st8{fill:url(#SVGID_9_);}
	.st9{fill:url(#SVGID_10_);}
	.st10{fill:url(#SVGID_11_);}
	.st11{fill:url(#SVGID_12_);}
</style>
<g>
	<g>
		<linearGradient id="SVGID_1_" gradientUnits="userSpaceOnUse" x1="0" y1="256" x2="511.999" y2="256">
			<stop  offset="0" style="stop-color:#00B2C6"/>
			<stop  offset="1" style="stop-color:#007399"/>
		</linearGradient>
		<path class="st0" d="M458.7,0H53.3C23.9,0,0,23.9,0,53.3v405.3C0,488.1,23.9,512,53.3,512h405.3c29.4,0,53.3-23.9,53.3-53.3V53.3
			C512,23.9,488.1,0,458.7,0z M490.7,458.7c0,17.7-14.3,32-32,32H53.3c-17.7,0-32-14.3-32-32V53.3c0-17.7,14.3-32,32-32h405.3
			c17.7,0,32,14.3,32,32L490.7,458.7L490.7,458.7z"/>
	</g>
</g>
<g>
	<g>
		<linearGradient id="SVGID_2_" gradientUnits="userSpaceOnUse" x1="42.667" y1="95.9995" x2="469.334" y2="95.9995">
			<stop  offset="0" style="stop-color:#00B2C6"/>
			<stop  offset="1" style="stop-color:#007399"/>
		</linearGradient>
		<rect x="42.7" y="85.3" class="st1" width="426.7" height="21.3"/>
	</g>
</g>
<g>
	<g>
		<linearGradient id="SVGID_3_" gradientUnits="userSpaceOnUse" x1="53.333" y1="53.3335" x2="74.666" y2="53.3335">
			<stop  offset="0" style="stop-color:#00B2C6"/>
			<stop  offset="1" style="stop-color:#007399"/>
		</linearGradient>
		<rect x="53.3" y="42.7" class="st2" width="21.3" height="21.3"/>
	</g>
</g>
<g>
	<g>
		<linearGradient id="SVGID_4_" gradientUnits="userSpaceOnUse" x1="96" y1="53.3335" x2="117.333" y2="53.3335">
			<stop  offset="0" style="stop-color:#00B2C6"/>
			<stop  offset="1" style="stop-color:#007399"/>
		</linearGradient>
		<rect x="96" y="42.7" class="st3" width="21.3" height="21.3"/>
	</g>
</g>
<g>
	<g>
		<linearGradient id="SVGID_5_" gradientUnits="userSpaceOnUse" x1="437.333" y1="53.3335" x2="458.666" y2="53.3335">
			<stop  offset="0" style="stop-color:#00B2C6"/>
			<stop  offset="1" style="stop-color:#007399"/>
		</linearGradient>
		<rect x="437.3" y="42.7" class="st4" width="21.3" height="21.3"/>
	</g>
</g>
<g>
	<g>
		<linearGradient id="SVGID_6_" gradientUnits="userSpaceOnUse" x1="74.667" y1="191.9995" x2="437.333" y2="191.9995">
			<stop  offset="0" style="stop-color:#00B2C6"/>
			<stop  offset="1" style="stop-color:#007399"/>
		</linearGradient>
		<path class="st5" d="M416,149.3H96c-11.8,0-21.3,9.6-21.3,21.3v42.7c0,11.8,9.6,21.3,21.3,21.3h320c11.8,0,21.3-9.6,21.3-21.3
			v-42.7C437.3,158.9,427.8,149.3,416,149.3z M416,213.3H96v-42.7h320V213.3z"/>
	</g>
</g>
<g>
	<g>
		<linearGradient id="SVGID_7_" gradientUnits="userSpaceOnUse" x1="74.667" y1="309.3335" x2="437.333" y2="309.3335">
			<stop  offset="0" style="stop-color:#00B2C6"/>
			<stop  offset="1" style="stop-color:#007399"/>
		</linearGradient>
		<path class="st6" d="M416,266.7H96c-11.8,0-21.3,9.6-21.3,21.3v42.7c0,11.8,9.6,21.3,21.3,21.3h320c11.8,0,21.3-9.6,21.3-21.3V288
			C437.3,276.2,427.8,266.7,416,266.7z M416,330.7H96V288h320V330.7z"/>
	</g>
</g>
<g>
	<g>
		<linearGradient id="SVGID_8_" gradientUnits="userSpaceOnUse" x1="74.666" y1="416" x2="181.333" y2="416">
			<stop  offset="0" style="stop-color:#00B2C6"/>
			<stop  offset="1" style="stop-color:#007399"/>
		</linearGradient>
		<path class="st7" d="M170.7,384H85.3c-5.9,0-10.7,4.8-10.7,10.7v32c0,11.8,9.6,21.3,21.3,21.3h64c11.8,0,21.3-9.6,21.3-21.3v-32
			C181.3,388.8,176.6,384,170.7,384z M160,426.7H96v-21.3h64V426.7z"/>
	</g>
</g>
<g>
	<g>
		<linearGradient id="SVGID_9_" gradientUnits="userSpaceOnUse" x1="202.667" y1="416" x2="309.333" y2="416">
			<stop  offset="0" style="stop-color:#00B2C6"/>
			<stop  offset="1" style="stop-color:#007399"/>
		</linearGradient>
		<path class="st8" d="M298.7,384h-85.3c-5.9,0-10.7,4.8-10.7,10.7v32c0,11.8,9.6,21.3,21.3,21.3h64c11.8,0,21.3-9.6,21.3-21.3v-32
			C309.3,388.8,304.6,384,298.7,384z M288,426.7h-64v-21.3h64V426.7z"/>
	</g>
</g>
<g>
	<g>
		<linearGradient id="SVGID_10_" gradientUnits="userSpaceOnUse" x1="416" y1="394.6665" x2="437.333" y2="394.6665">
			<stop  offset="0" style="stop-color:#00B2C6"/>
			<stop  offset="1" style="stop-color:#007399"/>
		</linearGradient>
		<rect x="416" y="384" class="st9" width="21.3" height="21.3"/>
	</g>
</g>
<g>
	<g>
		<linearGradient id="SVGID_11_" gradientUnits="userSpaceOnUse" x1="373.333" y1="394.6665" x2="394.666" y2="394.6665">
			<stop  offset="0" style="stop-color:#00B2C6"/>
			<stop  offset="1" style="stop-color:#007399"/>
		</linearGradient>
		<rect x="373.3" y="384" class="st10" width="21.3" height="21.3"/>
	</g>
</g>
<g>
	<g>
		<linearGradient id="SVGID_12_" gradientUnits="userSpaceOnUse" x1="341.333" y1="437.3335" x2="437.333" y2="437.3335">
			<stop  offset="0" style="stop-color:#00B2C6"/>
			<stop  offset="1" style="stop-color:#007399"/>
		</linearGradient>
		<rect x="341.3" y="426.7" class="st11" width="96" height="21.3"/>
	</g>
</g>
</svg>
