<?xml version="1.0" encoding="utf-8"?>
<!-- Generator: Adobe Illustrator 21.0.0, SVG Export Plug-In . SVG Version: 6.00 Build 0)  -->
<svg version="1.1" id="Layer_1" xmlns="http://www.w3.org/2000/svg" xmlns:xlink="http://www.w3.org/1999/xlink" x="0px" y="0px"
	 viewBox="0 0 469.3 469.3" style="enable-background:new 0 0 469.3 469.3;" xml:space="preserve">
<style type="text/css">
	.st0{fill:url(#SVGID_1_);}
	.st1{fill:url(#SVGID_2_);}
	.st2{fill:url(#SVGID_3_);}
	.st3{fill:url(#SVGID_4_);}
	.st4{fill:url(#SVGID_5_);}
	.st5{fill:url(#SVGID_6_);}
</style>
<g>
	<g>
		<g>
			<linearGradient id="SVGID_1_" gradientUnits="userSpaceOnUse" x1="0" y1="234.6665" x2="469.333" y2="234.6665">
				<stop  offset="0" style="stop-color:#00B2C6"/>
				<stop  offset="1" style="stop-color:#007399"/>
			</linearGradient>
			<path class="st0" d="M448,243.5V42.7C448,19.1,428.9,0,405.3,0H42.7C19.1,0,0,19.1,0,42.7v362.7C0,428.9,19.1,448,42.7,448h200.8
				c22.4,13.5,48.5,21.3,76.5,21.3c82.3,0,149.3-67,149.3-149.3C469.3,292,461.5,265.9,448,243.5z M234.7,21.3h170.7
				c11.8,0,21.3,9.6,21.3,21.3v173c-27.1-27.7-64.9-45-106.7-45c-31.7,0-61.1,10-85.3,27L234.7,21.3L234.7,21.3z M21.3,42.7
				c0-11.8,9.6-21.3,21.3-21.3h170.7v192h-192C21.3,213.3,21.3,42.7,21.3,42.7z M42.7,426.7c-11.8,0-21.3-9.6-21.3-21.3V234.7h176.3
				c-16.9,24.2-27,53.6-27,85.3c0,41.8,17.3,79.5,45,106.7H42.7z M320,448c-70.6,0-128-57.4-128-128s57.4-128,128-128
				s128,57.4,128,128S390.6,448,320,448z"/>
			<linearGradient id="SVGID_2_" gradientUnits="userSpaceOnUse" x1="63.999" y1="117.3335" x2="170.668" y2="117.3335">
				<stop  offset="0" style="stop-color:#00B2C6"/>
				<stop  offset="1" style="stop-color:#007399"/>
			</linearGradient>
			<path class="st1" d="M160,106.7h-32v-32c0-5.9-4.8-10.7-10.7-10.7c-5.9,0-10.7,4.8-10.7,10.7v32h-32c-5.9,0-10.7,4.8-10.7,10.7
				c0,5.9,4.8,10.7,10.7,10.7h32v32c0,5.9,4.8,10.7,10.7,10.7S128,165.9,128,160v-32h32c5.9,0,10.7-4.8,10.7-10.7
				C170.7,111.4,165.9,106.7,160,106.7z"/>
			<linearGradient id="SVGID_3_" gradientUnits="userSpaceOnUse" x1="277.333" y1="117.333" x2="384" y2="117.333">
				<stop  offset="0" style="stop-color:#00B2C6"/>
				<stop  offset="1" style="stop-color:#007399"/>
			</linearGradient>
			<path class="st2" d="M384,117.3c0-5.9-4.8-10.7-10.7-10.7H288c-5.9,0-10.7,4.8-10.7,10.7S282.1,128,288,128h85.3
				C379.2,128,384,123.2,384,117.3z"/>
			<linearGradient id="SVGID_4_" gradientUnits="userSpaceOnUse" x1="74.6677" y1="330.6659" x2="160.0022" y2="330.6659">
				<stop  offset="0" style="stop-color:#00B2C6"/>
				<stop  offset="1" style="stop-color:#007399"/>
			</linearGradient>
			<path class="st3" d="M156.9,291.1c-4.2-4.2-10.9-4.2-15.1,0l-24.5,24.5l-24.5-24.5c-4.2-4.2-10.9-4.2-15.1,0
				c-4.2,4.2-4.2,10.9,0,15.1l24.5,24.5l-24.5,24.5c-4.2,4.2-4.2,10.9,0,15.1c2.1,2.1,4.8,3.1,7.5,3.1c2.7,0,5.5-1,7.5-3.1
				l24.5-24.5l24.5,24.5c2.1,2.1,4.8,3.1,7.5,3.1c2.7,0,5.5-1,7.5-3.1c4.2-4.2,4.2-10.9,0-15.1l-24.5-24.5l24.5-24.5
				C161,302,161,295.3,156.9,291.1z"/>
			<linearGradient id="SVGID_5_" gradientUnits="userSpaceOnUse" x1="256" y1="288" x2="384.001" y2="288">
				<stop  offset="0" style="stop-color:#00B2C6"/>
				<stop  offset="1" style="stop-color:#007399"/>
			</linearGradient>
			<path class="st4" d="M373.3,277.3H266.7c-5.9,0-10.7,4.8-10.7,10.7s4.8,10.7,10.7,10.7h106.7c5.9,0,10.7-4.8,10.7-10.7
				C384,282.1,379.2,277.3,373.3,277.3z"/>
			<linearGradient id="SVGID_6_" gradientUnits="userSpaceOnUse" x1="256" y1="352" x2="384.001" y2="352">
				<stop  offset="0" style="stop-color:#00B2C6"/>
				<stop  offset="1" style="stop-color:#007399"/>
			</linearGradient>
			<path class="st5" d="M373.3,341.3H266.7c-5.9,0-10.7,4.8-10.7,10.7s4.8,10.7,10.7,10.7h106.7c5.9,0,10.7-4.8,10.7-10.7
				C384,346.1,379.2,341.3,373.3,341.3z"/>
		</g>
	</g>
</g>
</svg>
