<?xml version="1.0" encoding="utf-8"?>
<!-- Generator: Adobe Illustrator 21.0.0, SVG Export Plug-In . SVG Version: 6.00 Build 0)  -->
<svg version="1.1" id="Layer_1" xmlns="http://www.w3.org/2000/svg" xmlns:xlink="http://www.w3.org/1999/xlink" x="0px" y="0px"
	 viewBox="0 0 480 480" style="enable-background:new 0 0 480 480;" xml:space="preserve">
<style type="text/css">
	.st0{fill:url(#SVGID_1_);}
	.st1{fill:url(#SVGID_2_);}
	.st2{fill:url(#SVGID_3_);}
	.st3{fill:url(#SVGID_4_);}
	.st4{fill:url(#SVGID_5_);}
	.st5{fill:url(#SVGID_6_);}
	.st6{fill:url(#SVGID_7_);}
</style>
<linearGradient id="SVGID_1_" gradientUnits="userSpaceOnUse" x1="0" y1="240.9996" x2="480" y2="240.9996">
	<stop  offset="0" style="stop-color:#00B2C6"/>
	<stop  offset="1" style="stop-color:#007399"/>
</linearGradient>
<path class="st0" d="M408,117H296v-8c0-39.7-32.3-72-72-72H72C32.3,37,0,69.3,0,109v96c0,39.7,32.3,72,72,72h8v64
	c0,3.2,1.9,6.2,4.9,7.4s6.4,0.6,8.7-1.7l69.7-69.7H184v8c0,39.7,32.3,72,72,72h44.7l85.7,85.7c2.3,2.3,5.7,3,8.7,1.7
	s4.9-4.2,4.9-7.4v-80h8c39.7,0,72-32.3,72-72v-96C480,149.3,447.7,117,408,117z M160,261c-2.1,0-4.2,0.8-5.7,2.3L96,321.7V269
	c0-4.4-3.6-8-8-8H72c-30.9,0-56-25.1-56-56v-96c0-30.9,25.1-56,56-56h152c30.9,0,56,25.1,56,56v8h-24c-39.7,0-72,32.3-72,72v72H160z
	 M464,285c0,30.9-25.1,56-56,56h-16c-4.4,0-8,3.6-8,8v68.7l-74.3-74.3c-1.5-1.5-3.5-2.3-5.7-2.3h-48c-30.9,0-56-25.1-56-56v-96
	c0-30.9,25.1-56,56-56h152c30.9,0,56,25.1,56,56V285z"/>
<linearGradient id="SVGID_2_" gradientUnits="userSpaceOnUse" x1="232" y1="189" x2="432" y2="189">
	<stop  offset="0" style="stop-color:#00B2C6"/>
	<stop  offset="1" style="stop-color:#007399"/>
</linearGradient>
<path class="st1" d="M424,181H240c-4.4,0-8,3.6-8,8s3.6,8,8,8h184c4.4,0,8-3.6,8-8S428.4,181,424,181z"/>
<linearGradient id="SVGID_3_" gradientUnits="userSpaceOnUse" x1="232" y1="237" x2="432" y2="237">
	<stop  offset="0" style="stop-color:#00B2C6"/>
	<stop  offset="1" style="stop-color:#007399"/>
</linearGradient>
<path class="st2" d="M424,229H240c-4.4,0-8,3.6-8,8s3.6,8,8,8h184c4.4,0,8-3.6,8-8S428.4,229,424,229z"/>
<linearGradient id="SVGID_4_" gradientUnits="userSpaceOnUse" x1="232" y1="285" x2="432" y2="285">
	<stop  offset="0" style="stop-color:#00B2C6"/>
	<stop  offset="1" style="stop-color:#007399"/>
</linearGradient>
<path class="st3" d="M424,277H240c-4.4,0-8,3.6-8,8s3.6,8,8,8h184c4.4,0,8-3.6,8-8S428.4,277,424,277z"/>
<linearGradient id="SVGID_5_" gradientUnits="userSpaceOnUse" x1="40" y1="109" x2="224" y2="109">
	<stop  offset="0" style="stop-color:#00B2C6"/>
	<stop  offset="1" style="stop-color:#007399"/>
</linearGradient>
<path class="st4" d="M48,117h168c4.4,0,8-3.6,8-8s-3.6-8-8-8H48c-4.4,0-8,3.6-8,8S43.6,117,48,117z"/>
<linearGradient id="SVGID_6_" gradientUnits="userSpaceOnUse" x1="40" y1="157" x2="176" y2="157">
	<stop  offset="0" style="stop-color:#00B2C6"/>
	<stop  offset="1" style="stop-color:#007399"/>
</linearGradient>
<path class="st5" d="M168,149H48c-4.4,0-8,3.6-8,8s3.6,8,8,8h120c4.4,0,8-3.6,8-8S172.4,149,168,149z"/>
<linearGradient id="SVGID_7_" gradientUnits="userSpaceOnUse" x1="40" y1="205" x2="168" y2="205">
	<stop  offset="0" style="stop-color:#00B2C6"/>
	<stop  offset="1" style="stop-color:#007399"/>
</linearGradient>
<path class="st6" d="M160,197H48c-4.4,0-8,3.6-8,8s3.6,8,8,8h112c4.4,0,8-3.6,8-8S164.4,197,160,197z"/>
</svg>
