<?xml version="1.0" encoding="utf-8"?>
<!-- Generator: Adobe Illustrator 21.0.0, SVG Export Plug-In . SVG Version: 6.00 Build 0)  -->
<svg version="1.1" id="Capa_1" xmlns="http://www.w3.org/2000/svg" xmlns:xlink="http://www.w3.org/1999/xlink" x="0px" y="0px"
	 viewBox="0 0 469.2 469.2" style="enable-background:new 0 0 469.2 469.2;" xml:space="preserve">
<style type="text/css">
	.st0{fill:url(#SVGID_1_);}
	.st1{fill:url(#SVGID_2_);}
</style>
<g>
	<g>
		<g>
			<linearGradient id="SVGID_1_" gradientUnits="userSpaceOnUse" x1="181.291" y1="386.215" x2="287.871" y2="386.215">
				<stop  offset="0" style="stop-color:#00B2C6"/>
				<stop  offset="1" style="stop-color:#007399"/>
			</linearGradient>
			<path class="st0" d="M234.6,363.2c-26.7,0-49.4,19.5-53.3,46h106.6C284,382.8,261.3,363.2,234.6,363.2z"/>
			<linearGradient id="SVGID_2_" gradientUnits="userSpaceOnUse" x1="3.572828e-04" y1="203.2342" x2="469.1626" y2="203.2342">
				<stop  offset="0" style="stop-color:#00B2C6"/>
				<stop  offset="1" style="stop-color:#007399"/>
			</linearGradient>
			<path class="st1" d="M462.9,245.7l-61.6-134.3H430c4.3,0,7.8-3.5,7.8-7.8s-3.5-7.8-7.8-7.8H279c-5.4-24.5-29.6-40.1-54.1-34.7
				c-17.4,3.8-30.9,17.4-34.7,34.7h-151c-4.3,0-7.8,3.5-7.8,7.8s3.5,7.8,7.8,7.8h28.7L6.3,245.7c-3.7,0.8-6.3,4.1-6.3,7.8
				c0,44.5,35.9,80.7,80.5,81c44.4-0.3,80.4-36.1,81-80.5c-0.1-4.1-2.8-7.7-6.8-8.9L93,111.4h96.7c3,18.2,16.6,32.7,34.5,37.1v198
				h15.7v-197c20.2-2.5,36.4-18,39.7-38.1h96.7l-61.6,133.7c-3.9,0.9-6.7,4.4-6.8,8.4c0,44.5,35.9,80.7,80.5,81
				c44.5-0.6,80.4-36.5,81-81C469.2,249.7,466.6,246.4,462.9,245.7z M137.4,247.2H23.5L80.5,125L137.4,247.2z M331.8,247.2
				L388.7,125l56.9,122.3H331.8z"/>
		</g>
	</g>
</g>
</svg>
