<?xml version="1.0" encoding="utf-8"?>
<!-- Generator: Adobe Illustrator 21.0.0, SVG Export Plug-In . SVG Version: 6.00 Build 0)  -->
<svg version="1.1" id="_x33_0" xmlns="http://www.w3.org/2000/svg" xmlns:xlink="http://www.w3.org/1999/xlink" x="0px" y="0px"
	 viewBox="0 0 512 512" style="enable-background:new 0 0 512 512;" xml:space="preserve">
<style type="text/css">
	.st0{fill:url(#SVGID_1_);}
	.st1{fill:url(#SVGID_2_);}
	.st2{fill:url(#SVGID_3_);}
	.st3{fill:url(#SVGID_4_);}
	.st4{fill:url(#SVGID_5_);}
	.st5{fill:url(#SVGID_6_);}
	.st6{fill:url(#SVGID_7_);}
	.st7{fill:url(#SVGID_8_);}
	.st8{fill:url(#SVGID_9_);}
	.st9{fill:url(#SVGID_10_);}
	.st10{fill:url(#SVGID_11_);}
	.st11{fill:url(#SVGID_12_);}
	.st12{fill:url(#SVGID_13_);}
	.st13{fill:url(#SVGID_14_);}
	.st14{fill:url(#SVGID_15_);}
	.st15{fill:url(#SVGID_16_);}
</style>
<linearGradient id="SVGID_1_" gradientUnits="userSpaceOnUse" x1="72" y1="256" x2="456" y2="256">
	<stop  offset="0" style="stop-color:#00B2C6"/>
	<stop  offset="1" style="stop-color:#007399"/>
</linearGradient>
<path class="st0" d="M400,56h-57.7C327.7,27.6,298.1,8,264,8s-63.7,19.6-78.3,48H128c-30.9,0-56,25.1-56,56v352
	c0,22.1,17.9,40,40,40h304c22.1,0,40-17.9,40-40V112C456,81.1,430.9,56,400,56z M392,104c8.8,0,16,7.2,16,16v80H120v-80
	c0-8.8,7.2-16,16-16h40.4c4.1,44.8,41.8,80,87.6,80s83.5-35.2,87.6-80H392z M264,24c39.7,0,72,32.3,72,72s-32.3,72-72,72
	s-72-32.3-72-72S224.3,24,264,24z M440,464c0,13.2-10.8,24-24,24H112c-13.2,0-24-10.8-24-24V112c0-22.1,17.9-40,40-40h51.4
	c-1.5,5.2-2.5,10.5-3,16H136c-17.6,0-32,14.4-32,32v80c0,8.8,7.2,16,16,16h288c8.8,0,16-7.2,16-16v-80c0-17.6-14.4-32-32-32h-40.4
	c-0.5-5.5-1.5-10.8-3-16H400c22.1,0,40,17.9,40,40V464z"/>
<linearGradient id="SVGID_2_" gradientUnits="userSpaceOnUse" x1="104" y1="352" x2="424" y2="352">
	<stop  offset="0" style="stop-color:#00B2C6"/>
	<stop  offset="1" style="stop-color:#007399"/>
</linearGradient>
<path class="st1" d="M408,232H120c-8.8,0-16,7.2-16,16v208c0,8.8,7.2,16,16,16h288c8.8,0,16-7.2,16-16V248
	C424,239.2,416.8,232,408,232z M120,456V248h288l0,208H120z"/>
<linearGradient id="SVGID_3_" gradientUnits="userSpaceOnUse" x1="136" y1="416" x2="184" y2="416">
	<stop  offset="0" style="stop-color:#00B2C6"/>
	<stop  offset="1" style="stop-color:#007399"/>
</linearGradient>
<path class="st2" d="M160,392c-13.2,0-24,10.8-24,24s10.8,24,24,24s24-10.8,24-24S173.2,392,160,392z M160,424c-4.4,0-8-3.6-8-8
	s3.6-8,8-8s8,3.6,8,8S164.4,424,160,424z"/>
<linearGradient id="SVGID_4_" gradientUnits="userSpaceOnUse" x1="200" y1="416" x2="248" y2="416">
	<stop  offset="0" style="stop-color:#00B2C6"/>
	<stop  offset="1" style="stop-color:#007399"/>
</linearGradient>
<path class="st3" d="M224,392c-13.2,0-24,10.8-24,24s10.8,24,24,24s24-10.8,24-24S237.2,392,224,392z M224,424c-4.4,0-8-3.6-8-8
	s3.6-8,8-8s8,3.6,8,8S228.4,424,224,424z"/>
<linearGradient id="SVGID_5_" gradientUnits="userSpaceOnUse" x1="264" y1="416" x2="312" y2="416">
	<stop  offset="0" style="stop-color:#00B2C6"/>
	<stop  offset="1" style="stop-color:#007399"/>
</linearGradient>
<path class="st4" d="M288,392c-13.2,0-24,10.8-24,24s10.8,24,24,24s24-10.8,24-24S301.2,392,288,392z M288,424c-4.4,0-8-3.6-8-8
	s3.6-8,8-8s8,3.6,8,8S292.4,424,288,424z"/>
<linearGradient id="SVGID_6_" gradientUnits="userSpaceOnUse" x1="136" y1="352" x2="184" y2="352">
	<stop  offset="0" style="stop-color:#00B2C6"/>
	<stop  offset="1" style="stop-color:#007399"/>
</linearGradient>
<path class="st5" d="M160,328c-13.2,0-24,10.8-24,24s10.8,24,24,24s24-10.8,24-24S173.2,328,160,328z M160,360c-4.4,0-8-3.6-8-8
	s3.6-8,8-8s8,3.6,8,8S164.4,360,160,360z"/>
<linearGradient id="SVGID_7_" gradientUnits="userSpaceOnUse" x1="200" y1="352" x2="248" y2="352">
	<stop  offset="0" style="stop-color:#00B2C6"/>
	<stop  offset="1" style="stop-color:#007399"/>
</linearGradient>
<path class="st6" d="M224,328c-13.2,0-24,10.8-24,24s10.8,24,24,24s24-10.8,24-24S237.2,328,224,328z M224,360c-4.4,0-8-3.6-8-8
	s3.6-8,8-8s8,3.6,8,8S228.4,360,224,360z"/>
<linearGradient id="SVGID_8_" gradientUnits="userSpaceOnUse" x1="264" y1="352" x2="312" y2="352">
	<stop  offset="0" style="stop-color:#00B2C6"/>
	<stop  offset="1" style="stop-color:#007399"/>
</linearGradient>
<path class="st7" d="M288,328c-13.2,0-24,10.8-24,24s10.8,24,24,24s24-10.8,24-24S301.2,328,288,328z M288,360c-4.4,0-8-3.6-8-8
	s3.6-8,8-8s8,3.6,8,8S292.4,360,288,360z"/>
<linearGradient id="SVGID_9_" gradientUnits="userSpaceOnUse" x1="136" y1="288" x2="184" y2="288">
	<stop  offset="0" style="stop-color:#00B2C6"/>
	<stop  offset="1" style="stop-color:#007399"/>
</linearGradient>
<path class="st8" d="M160,264c-13.2,0-24,10.8-24,24s10.8,24,24,24s24-10.8,24-24S173.2,264,160,264z M160,296c-4.4,0-8-3.6-8-8
	s3.6-8,8-8s8,3.6,8,8S164.4,296,160,296z"/>
<linearGradient id="SVGID_10_" gradientUnits="userSpaceOnUse" x1="200" y1="288" x2="248" y2="288">
	<stop  offset="0" style="stop-color:#00B2C6"/>
	<stop  offset="1" style="stop-color:#007399"/>
</linearGradient>
<path class="st9" d="M224,264c-13.2,0-24,10.8-24,24s10.8,24,24,24s24-10.8,24-24S237.2,264,224,264z M224,296c-4.4,0-8-3.6-8-8
	s3.6-8,8-8s8,3.6,8,8S228.4,296,224,296z"/>
<linearGradient id="SVGID_11_" gradientUnits="userSpaceOnUse" x1="264" y1="288" x2="312" y2="288">
	<stop  offset="0" style="stop-color:#00B2C6"/>
	<stop  offset="1" style="stop-color:#007399"/>
</linearGradient>
<path class="st10" d="M288,264c-13.2,0-24,10.8-24,24s10.8,24,24,24s24-10.8,24-24S301.2,264,288,264z M288,296c-4.4,0-8-3.6-8-8
	s3.6-8,8-8s8,3.6,8,8S292.4,296,288,296z"/>
<linearGradient id="SVGID_12_" gradientUnits="userSpaceOnUse" x1="328" y1="288" x2="392" y2="288">
	<stop  offset="0" style="stop-color:#00B2C6"/>
	<stop  offset="1" style="stop-color:#007399"/>
</linearGradient>
<path class="st11" d="M368,264h-16c-13.2,0-24,10.8-24,24s10.8,24,24,24h16c13.2,0,24-10.8,24-24S381.2,264,368,264z M368,296h-16
	c-4.4,0-8-3.6-8-8s3.6-8,8-8h16c4.4,0,8,3.6,8,8S372.4,296,368,296z"/>
<linearGradient id="SVGID_13_" gradientUnits="userSpaceOnUse" x1="328" y1="384" x2="392" y2="384">
	<stop  offset="0" style="stop-color:#00B2C6"/>
	<stop  offset="1" style="stop-color:#007399"/>
</linearGradient>
<path class="st12" d="M368,328h-16c-13.2,0-24,10.8-24,24v64c0,13.2,10.8,24,24,24h16c13.2,0,24-10.8,24-24v-64
	C392,338.8,381.2,328,368,328z M376,416c0,4.4-3.6,8-8,8h-16c-4.4,0-8-3.6-8-8v-64c0-4.4,3.6-8,8-8h16c4.4,0,8,3.6,8,8V416z"/>
<linearGradient id="SVGID_14_" gradientUnits="userSpaceOnUse" x1="218.3104" y1="96.016" x2="309.6096" y2="96.016">
	<stop  offset="0" style="stop-color:#00B2C6"/>
	<stop  offset="1" style="stop-color:#007399"/>
</linearGradient>
<path class="st13" d="M218.3,130.4l80-80l11.3,11.3l-80,80L218.3,130.4z"/>
<linearGradient id="SVGID_15_" gradientUnits="userSpaceOnUse" x1="264" y1="120" x2="312" y2="120">
	<stop  offset="0" style="stop-color:#00B2C6"/>
	<stop  offset="1" style="stop-color:#007399"/>
</linearGradient>
<path class="st14" d="M288,96c-13.2,0-24,10.8-24,24s10.8,24,24,24s24-10.8,24-24S301.2,96,288,96z M288,128c-4.4,0-8-3.6-8-8
	s3.6-8,8-8s8,3.6,8,8S292.4,128,288,128z"/>
<linearGradient id="SVGID_16_" gradientUnits="userSpaceOnUse" x1="216" y1="72" x2="264" y2="72">
	<stop  offset="0" style="stop-color:#00B2C6"/>
	<stop  offset="1" style="stop-color:#007399"/>
</linearGradient>
<path class="st15" d="M240,96c13.2,0,24-10.8,24-24s-10.8-24-24-24s-24,10.8-24,24S226.8,96,240,96z M240,64c4.4,0,8,3.6,8,8
	s-3.6,8-8,8s-8-3.6-8-8S235.6,64,240,64z"/>
</svg>
