<svg height="512pt" viewBox="0 0 512.00042 512" width="512pt" xmlns="http://www.w3.org/2000/svg"><path d="m334.433594 325.394531c6.296875-9.078125 4.039062-21.539062-5.035156-27.832031l-53.398438-37.035156v-56.53125h43.8125c10.019531 0 19.390625-4.457032 25.714844-12.230469 6.351562-7.804687 8.820312-17.945313 6.769531-27.816406-5.675781-27.328125-22.675781-50.105469-45.421875-63.851563 7.613281-10.414062 12.125-23.238281 12.125-37.097656 0-34.738281-28.261719-63-63-63s-63 28.261719-63 63c0 13.859375 4.511719 26.683594 12.128906 37.097656-22.746094 13.746094-39.746094 36.523438-45.425781 63.855469-2.046875 9.867187.417969 20.007813 6.773437 27.8125 6.324219 7.773437 15.695313 12.230469 25.710938 12.230469h43.8125v56.863281l-51.824219 38.007813c-8.90625 6.53125-10.832031 19.046874-4.300781 27.957031 3.917969 5.34375 9.988281 8.171875 16.144531 8.171875 4.101563 0 8.246094-1.261719 11.808594-3.875l48.5-35.5625 50.277344 34.871094c3.476562 2.410156 7.445312 3.566406 11.378906 3.566406 6.332031 0 12.566406-3.003906 16.449219-8.601563zm-78.433594-285.394531c12.683594 0 23 10.316406 23 23 0 12.679688-10.316406 23-23 23s-23-10.320312-23-23c0-12.683594 10.316406-23 23-23zm-.523438 85.996094h1.046876c24.417968 0 46.070312 15.558594 54.300781 38h-109.648438c8.234375-22.441406 29.882813-38 54.300781-38zm255.820313 345.953125c-2.246094-10.8125-12.828125-17.761719-23.648437-15.515625-8.0625 1.671875-13.972657 7.980468-15.53125 15.558594h-111.941407c8.230469-22.4375 29.882813-38 54.300781-38h1.046876c.179687 0 .351562-.019532.527343-.023438 34.253907-.566406 61.949219-28.589844 61.949219-62.972656 0-34.738282-28.261719-63-63-63s-63 28.261718-63 63c0 13.859375 4.511719 26.683594 12.125 37.097656-22.746094 13.742188-39.746094 36.523438-45.421875 63.855469-2.050781 9.867187.417969 20.007812 6.769531 27.8125 6.324219 7.773437 15.699219 12.230469 25.714844 12.230469h127.625c10.015625 0 19.390625-4.457032 25.714844-12.230469 6.351562-7.804688 8.816406-17.941407 6.769531-27.8125zm-96.296875-123.953125c12.679688 0 23 10.316406 23 23 0 12.679687-10.320312 23-23 23-12.683594 0-23-10.320313-23-23 0-12.683594 10.316406-23 23-23zm-267.125 60.097656c7.617188-10.414062 12.125-23.238281 12.125-37.097656 0-34.738282-28.261719-63-62.996094-63-34.738281 0-63 28.261718-63 63 0 13.859375 4.511719 26.683594 12.125 37.097656-22.746094 13.742188-39.746094 36.523438-45.421875 63.855469-2.050781 9.867187.417969 20.007812 6.769531 27.8125 6.324219 7.773437 15.695313 12.230469 25.714844 12.230469h127.625c10.015625 0 19.390625-4.457032 25.710938-12.230469 6.355468-7.804688 8.820312-17.945313 6.773437-27.816407-5.679687-27.328124-22.679687-50.109374-45.425781-63.851562zm-50.871094-60.097656c12.679688 0 22.996094 10.316406 22.996094 23 0 12.679687-10.316406 23-22.996094 23-12.683594 0-23-10.320313-23-23 0-12.683594 10.316406-23 23-23zm-54.824218 123.996094c8.230468-22.4375 29.882812-38 54.300781-38h1.046875c24.417968 0 46.066406 15.558593 54.300781 38zm0 0"/></svg>