<svg width="301" height="56" viewBox="0 0 301 56" fill="none" xmlns="http://www.w3.org/2000/svg">
<g filter="url(#filter0_i)">
<path d="M13.2128 36.2815H7.76445V17.6663C6.89003 18.4163 5.98871 18.9846 5.06048 19.3713C4.76452 19.5002 3.87665 19.7932 2.39686 20.2502L0.742188 16.928C2.3565 16.4475 3.8901 15.6741 5.34298 14.6077C7.07837 13.342 8.22857 11.9768 8.79358 10.512H13.2128V36.2815Z" fill="#3B4148"/>
</g>
<g filter="url(#filter1_i)">
<path d="M77.1632 22.6508C76.4912 24.8355 75.0414 26.4928 72.8136 27.6228C70.5859 28.7528 68.1596 29.0114 65.5347 28.3988C63.0788 27.8255 61.229 26.7083 59.9851 25.047C58.7413 23.3858 58.3037 21.4577 58.6724 19.2629L63.932 19.8901C63.7363 21.0697 63.8836 22.0625 64.3738 22.8685C64.8805 23.6662 65.6601 24.1878 66.7126 24.4335C67.8301 24.6944 68.8676 24.5362 69.8251 23.9589C70.7826 23.3817 71.4563 22.4592 71.8463 21.1914C72.2049 20.0255 72.143 19.0041 71.6607 18.1272C71.1948 17.242 70.4356 16.6766 69.3831 16.4309C68.7074 16.2732 67.8652 16.204 66.8565 16.2233L68.6178 12.467C70.0341 12.7976 71.2062 12.7679 72.1339 12.3778C73.0617 11.9878 73.6805 11.289 73.9904 10.2816C74.2446 9.45529 74.1754 8.7294 73.7828 8.10396C73.4067 7.47023 72.7574 7.04569 71.8348 6.83035C70.8992 6.61197 70.0325 6.71297 69.2347 7.13336C68.4534 7.54546 67.8224 8.28382 67.3417 9.34845L62.7182 7.46852C63.8874 5.38781 65.3374 3.97922 67.068 3.24276C68.8022 2.49498 70.8387 2.39406 73.1777 2.94001C75.4777 3.47686 77.2141 4.55549 78.3869 6.17591C79.5727 7.79937 79.8975 9.48269 79.3613 11.2259C78.6928 13.3992 76.8377 14.8346 73.796 15.5319C75.2873 16.2076 76.3388 17.1809 76.9506 18.452C77.5624 19.7231 77.6332 21.1227 77.1632 22.6508Z" fill="#3B4148"/>
</g>
<g filter="url(#filter2_i)">
<path d="M46.2284 42.8392L27.3462 44.6945C27.2778 42.8905 27.6335 41.2106 28.4134 39.6546C29.2887 37.9236 31.0098 35.6597 33.5767 32.863C35.8527 30.379 37.2528 28.6319 37.7768 27.6218C38.1333 26.9358 38.237 26.0972 38.088 25.1059C37.9267 24.033 37.4816 23.2305 36.7528 22.6986C36.0356 22.1536 35.0908 21.9387 33.9186 22.0539C32.733 22.1704 31.8644 22.5516 31.3127 23.1976C30.68 23.9343 30.4705 25.0141 30.6844 26.4369L25.2359 26.4752C25.1415 23.869 25.8495 21.8349 27.3599 20.3728C28.753 19.0288 30.7816 18.2259 33.4457 17.9642C36.1498 17.6985 38.4228 18.1615 40.2647 19.3534C42.0613 20.5142 43.1165 22.1384 43.4303 24.2259C43.4566 24.4009 43.482 24.57 43.5066 24.7333C43.5311 24.8965 43.5623 25.0592 43.6002 25.2211C43.7825 26.434 43.6401 27.5546 43.1728 28.5827C42.504 30.0686 40.9654 32.1074 38.5569 34.6992C37.1582 36.1858 36.2377 37.2112 35.7954 37.7754C35.3975 38.276 35.0831 38.7921 34.8521 39.3237L45.5421 38.2734L46.2284 42.8392Z" fill="#3B4148"/>
</g>
<g filter="url(#filter3_i)">
<path d="M227.006 32.9893C225.473 34.3604 223.973 36.2881 222.506 38.7725C221 41.3154 219.802 43.9756 218.915 46.7529C217.946 49.7764 217.462 52.583 217.462 55.1729H212.215C212.215 51.6689 212.989 48.0068 214.536 44.1865C216.096 40.3545 218.175 36.9561 220.771 33.9912H208.401V29.4033H227.006V32.9893Z" fill="#3B4148"/>
</g>
<g filter="url(#filter4_i)">
<path d="M196.139 28.0217C196.139 30.6467 195.292 32.762 193.597 34.3674C191.915 35.9612 189.715 36.7581 186.998 36.7581C183.971 36.7581 181.617 35.7561 179.935 33.7522C178.092 31.5491 177.171 28.2268 177.171 23.7854C177.171 19.262 178.126 15.8167 180.036 13.4495C181.839 11.2229 184.341 10.1096 187.543 10.1096C189.668 10.1096 191.437 10.7073 192.85 11.9026C194.276 13.0862 195.197 14.7385 195.614 16.8596L190.348 17.387C190.227 16.4026 189.89 15.6233 189.339 15.0491C188.801 14.4631 188.094 14.1702 187.22 14.1702C185.929 14.1702 184.913 14.6799 184.173 15.6995C183.258 16.9651 182.801 18.9866 182.801 21.7639C184.16 20.3108 185.848 19.5842 187.866 19.5842C190.166 19.5842 192.117 20.3752 193.718 21.9573C195.332 23.5393 196.139 25.5608 196.139 28.0217ZM190.812 28.0745C190.812 26.4807 190.462 25.2737 189.763 24.4534C189.076 23.6331 188.155 23.2229 186.998 23.2229C185.908 23.2229 185.027 23.5862 184.355 24.3127C183.628 25.0979 183.265 26.2053 183.265 27.635C183.265 29.1584 183.669 30.3889 184.476 31.3264C185.242 32.217 186.177 32.6624 187.281 32.6624C188.37 32.6624 189.211 32.3225 189.803 31.6428C190.476 30.8694 190.812 29.6799 190.812 28.0745Z" fill="#3B4148"/>
</g>
<g filter="url(#filter5_i)">
<path d="M258.954 34.1851C258.954 36.5757 258.113 38.5444 256.432 40.0913C254.764 41.6265 252.544 42.394 249.773 42.394C246.948 42.394 244.654 41.6558 242.892 40.1792C241.143 38.6909 240.269 36.7632 240.269 34.396C240.269 32.9194 240.639 31.6187 241.378 30.4937C242.186 29.2515 243.396 28.314 245.011 27.6812C243.679 27.1772 242.663 26.4155 241.964 25.396C241.318 24.4585 240.995 23.3862 240.995 22.1792C240.995 20.2222 241.715 18.6694 243.154 17.521C244.674 16.314 246.793 15.7104 249.511 15.7104C252.161 15.7104 254.246 16.2964 255.766 17.4683C257.286 18.6401 258.046 20.2104 258.046 22.1792C258.046 23.3979 257.71 24.4937 257.037 25.4663C256.365 26.4272 255.396 27.1655 254.131 27.6812C255.665 28.2319 256.849 29.0815 257.683 30.23C258.53 31.3667 258.954 32.6851 258.954 34.1851ZM252.921 22.5132C252.921 21.5991 252.625 20.8901 252.033 20.3862C251.441 19.8823 250.62 19.6304 249.571 19.6304C248.495 19.6304 247.654 19.8823 247.049 20.3862C246.443 20.8901 246.141 21.605 246.141 22.5308C246.141 23.5151 246.443 24.312 247.049 24.9214C247.654 25.5308 248.475 25.8354 249.511 25.8354C250.519 25.8354 251.34 25.5308 251.972 24.9214C252.605 24.3003 252.921 23.4976 252.921 22.5132ZM253.566 33.9741C253.566 32.7788 253.197 31.7827 252.457 30.9858C251.717 30.189 250.762 29.7905 249.591 29.7905C248.367 29.7905 247.385 30.2241 246.645 31.0913C245.972 31.8765 245.636 32.8198 245.636 33.9214C245.636 35.2573 246.013 36.3413 246.766 37.1733C247.52 38.0054 248.488 38.4214 249.672 38.4214C250.815 38.4214 251.75 38.0229 252.477 37.2261C253.203 36.4292 253.566 35.3452 253.566 33.9741Z" fill="#3B4148"/>
</g>
<g filter="url(#filter6_i)">
<path d="M293.092 31.3762C295.688 35.2936 296.808 38.6477 296.452 41.4384C296.13 44.0226 294.559 46.0237 291.74 47.4417C289.818 48.4085 287.956 48.7289 286.156 48.4031C284.367 48.0713 282.682 47.0647 281.102 45.3833L285.378 42.6239C286.672 44.1785 288.129 44.5486 289.749 43.7341C290.89 43.1599 291.505 42.3297 291.593 41.2436C291.701 39.8361 290.965 37.9399 289.384 35.555C289.035 37.3951 287.969 38.7634 286.186 39.6598C284.217 40.6501 282.107 40.8182 279.856 40.1641C277.525 39.4827 275.647 38.0662 274.221 35.9147C272.727 33.6617 272.248 31.4737 272.783 29.3509C273.318 27.2281 274.756 25.5779 277.098 24.4001C279.719 23.0818 282.33 22.919 284.929 23.9119C287.802 25.0112 290.522 27.4993 293.092 31.3762ZM285.585 30.6662C284.71 29.3468 283.673 28.4613 282.472 28.0095C281.284 27.5519 280.2 27.5692 279.221 28.0614C278.301 28.5243 277.783 29.184 277.667 30.0406C277.535 31.0135 277.93 32.1952 278.852 33.5856C279.76 34.9557 280.759 35.8537 281.849 36.2797C282.877 36.6827 283.898 36.6294 284.912 36.1196C285.855 35.645 286.404 34.9495 286.558 34.0332C286.73 33.0266 286.405 31.9043 285.585 30.6662Z" fill="#3B4148"/>
</g>
<g filter="url(#filter7_i)">
<path d="M151.365 9.9548C154.228 9.52236 156.795 9.93161 159.064 11.1825C161.41 12.4697 162.823 14.3256 163.306 16.7503C163.75 18.9788 163.411 20.915 162.291 22.559C161.156 24.1934 159.364 25.3442 156.916 26.0112L155.413 21.4393C156.62 21.1261 157.538 20.5949 158.167 19.8458C158.783 19.0986 159.003 18.2805 158.826 17.3914C158.621 16.3637 157.993 15.6082 156.941 15.1249C155.798 14.5958 154.292 14.4724 152.423 14.7547C150.687 15.0169 149.426 15.5404 148.64 16.3252C147.841 17.1119 147.552 18.0653 147.775 19.1853C148.04 20.5131 148.989 21.6126 150.623 22.4838L150.719 26.3586L134.675 26.3198L132.217 13.9709L137.446 13.1811L139.201 21.9968L144.694 21.9164C143.862 20.9598 143.339 19.9446 143.125 18.8707C142.707 16.7693 143.246 14.8801 144.742 13.2031C146.281 11.472 148.489 10.3892 151.365 9.9548Z" fill="#3B4148"/>
</g>
<g filter="url(#filter8_i)">
<path d="M102.821 46.9565L100.921 44.3637L95.9038 47.1543L93.0695 43.2874L98.0868 40.4968L91.8319 31.963L96.0158 29.6359L118.383 29.9381L120.837 33.2865L105.122 42.0272L107.022 44.62L102.821 46.9565ZM102.288 38.1603L110.707 33.4778L98.7802 33.3748L102.288 38.1603Z" fill="#3B4148"/>
</g>
<g filter="url(#filter9_i)">
<rect x="0.742676" y="26.2815" width="300" height="3" rx="1.5" fill="black"/>
</g>
<defs>
<filter id="filter0_i" x="0.742188" y="10.512" width="12.4706" height="25.7695" filterUnits="userSpaceOnUse" color-interpolation-filters="sRGB">
<feFlood flood-opacity="0" result="BackgroundImageFix"/>
<feBlend mode="normal" in="SourceGraphic" in2="BackgroundImageFix" result="shape"/>
<feColorMatrix in="SourceAlpha" type="matrix" values="0 0 0 0 0 0 0 0 0 0 0 0 0 0 0 0 0 0 127 0" result="hardAlpha"/>
<feOffset/>
<feGaussianBlur stdDeviation="1.5"/>
<feComposite in2="hardAlpha" operator="arithmetic" k2="-1" k3="1"/>
<feColorMatrix type="matrix" values="0 0 0 0 0 0 0 0 0 0 0 0 0 0 0 0 0 0 0.8 0"/>
<feBlend mode="normal" in2="shape" result="effect1_innerShadow"/>
</filter>
<filter id="filter1_i" x="58.5459" y="2.59448" width="21.0658" height="26.1274" filterUnits="userSpaceOnUse" color-interpolation-filters="sRGB">
<feFlood flood-opacity="0" result="BackgroundImageFix"/>
<feBlend mode="normal" in="SourceGraphic" in2="BackgroundImageFix" result="shape"/>
<feColorMatrix in="SourceAlpha" type="matrix" values="0 0 0 0 0 0 0 0 0 0 0 0 0 0 0 0 0 0 127 0" result="hardAlpha"/>
<feOffset/>
<feGaussianBlur stdDeviation="1.5"/>
<feComposite in2="hardAlpha" operator="arithmetic" k2="-1" k3="1"/>
<feColorMatrix type="matrix" values="0 0 0 0 0 0 0 0 0 0 0 0 0 0 0 0 0 0 0.8 0"/>
<feBlend mode="normal" in2="shape" result="effect1_innerShadow"/>
</filter>
<filter id="filter2_i" x="25.2275" y="17.8916" width="21.0009" height="26.803" filterUnits="userSpaceOnUse" color-interpolation-filters="sRGB">
<feFlood flood-opacity="0" result="BackgroundImageFix"/>
<feBlend mode="normal" in="SourceGraphic" in2="BackgroundImageFix" result="shape"/>
<feColorMatrix in="SourceAlpha" type="matrix" values="0 0 0 0 0 0 0 0 0 0 0 0 0 0 0 0 0 0 127 0" result="hardAlpha"/>
<feOffset/>
<feGaussianBlur stdDeviation="1.5"/>
<feComposite in2="hardAlpha" operator="arithmetic" k2="-1" k3="1"/>
<feColorMatrix type="matrix" values="0 0 0 0 0 0 0 0 0 0 0 0 0 0 0 0 0 0 0.8 0"/>
<feBlend mode="normal" in2="shape" result="effect1_innerShadow"/>
</filter>
<filter id="filter3_i" x="208.401" y="29.4033" width="18.605" height="25.7695" filterUnits="userSpaceOnUse" color-interpolation-filters="sRGB">
<feFlood flood-opacity="0" result="BackgroundImageFix"/>
<feBlend mode="normal" in="SourceGraphic" in2="BackgroundImageFix" result="shape"/>
<feColorMatrix in="SourceAlpha" type="matrix" values="0 0 0 0 0 0 0 0 0 0 0 0 0 0 0 0 0 0 127 0" result="hardAlpha"/>
<feOffset/>
<feGaussianBlur stdDeviation="1.5"/>
<feComposite in2="hardAlpha" operator="arithmetic" k2="-1" k3="1"/>
<feColorMatrix type="matrix" values="0 0 0 0 0 0 0 0 0 0 0 0 0 0 0 0 0 0 0.8 0"/>
<feBlend mode="normal" in2="shape" result="effect1_innerShadow"/>
</filter>
<filter id="filter4_i" x="177.171" y="10.1096" width="18.9682" height="26.6484" filterUnits="userSpaceOnUse" color-interpolation-filters="sRGB">
<feFlood flood-opacity="0" result="BackgroundImageFix"/>
<feBlend mode="normal" in="SourceGraphic" in2="BackgroundImageFix" result="shape"/>
<feColorMatrix in="SourceAlpha" type="matrix" values="0 0 0 0 0 0 0 0 0 0 0 0 0 0 0 0 0 0 127 0" result="hardAlpha"/>
<feOffset/>
<feGaussianBlur stdDeviation="1.5"/>
<feComposite in2="hardAlpha" operator="arithmetic" k2="-1" k3="1"/>
<feColorMatrix type="matrix" values="0 0 0 0 0 0 0 0 0 0 0 0 0 0 0 0 0 0 0.8 0"/>
<feBlend mode="normal" in2="shape" result="effect1_innerShadow"/>
</filter>
<filter id="filter5_i" x="240.269" y="15.7104" width="18.6857" height="26.6836" filterUnits="userSpaceOnUse" color-interpolation-filters="sRGB">
<feFlood flood-opacity="0" result="BackgroundImageFix"/>
<feBlend mode="normal" in="SourceGraphic" in2="BackgroundImageFix" result="shape"/>
<feColorMatrix in="SourceAlpha" type="matrix" values="0 0 0 0 0 0 0 0 0 0 0 0 0 0 0 0 0 0 127 0" result="hardAlpha"/>
<feOffset/>
<feGaussianBlur stdDeviation="1.5"/>
<feComposite in2="hardAlpha" operator="arithmetic" k2="-1" k3="1"/>
<feColorMatrix type="matrix" values="0 0 0 0 0 0 0 0 0 0 0 0 0 0 0 0 0 0 0.8 0"/>
<feBlend mode="normal" in2="shape" result="effect1_innerShadow"/>
</filter>
<filter id="filter6_i" x="272.571" y="23.2722" width="23.9452" height="25.2542" filterUnits="userSpaceOnUse" color-interpolation-filters="sRGB">
<feFlood flood-opacity="0" result="BackgroundImageFix"/>
<feBlend mode="normal" in="SourceGraphic" in2="BackgroundImageFix" result="shape"/>
<feColorMatrix in="SourceAlpha" type="matrix" values="0 0 0 0 0 0 0 0 0 0 0 0 0 0 0 0 0 0 127 0" result="hardAlpha"/>
<feOffset/>
<feGaussianBlur stdDeviation="1.5"/>
<feComposite in2="hardAlpha" operator="arithmetic" k2="-1" k3="1"/>
<feColorMatrix type="matrix" values="0 0 0 0 0 0 0 0 0 0 0 0 0 0 0 0 0 0 0.8 0"/>
<feBlend mode="normal" in2="shape" result="effect1_innerShadow"/>
</filter>
<filter id="filter7_i" x="132.217" y="9.78809" width="31.2776" height="16.5704" filterUnits="userSpaceOnUse" color-interpolation-filters="sRGB">
<feFlood flood-opacity="0" result="BackgroundImageFix"/>
<feBlend mode="normal" in="SourceGraphic" in2="BackgroundImageFix" result="shape"/>
<feColorMatrix in="SourceAlpha" type="matrix" values="0 0 0 0 0 0 0 0 0 0 0 0 0 0 0 0 0 0 127 0" result="hardAlpha"/>
<feOffset/>
<feGaussianBlur stdDeviation="1.5"/>
<feComposite in2="hardAlpha" operator="arithmetic" k2="-1" k3="1"/>
<feColorMatrix type="matrix" values="0 0 0 0 0 0 0 0 0 0 0 0 0 0 0 0 0 0 0.8 0"/>
<feBlend mode="normal" in2="shape" result="effect1_innerShadow"/>
</filter>
<filter id="filter8_i" x="91.832" y="29.636" width="29.0053" height="17.5184" filterUnits="userSpaceOnUse" color-interpolation-filters="sRGB">
<feFlood flood-opacity="0" result="BackgroundImageFix"/>
<feBlend mode="normal" in="SourceGraphic" in2="BackgroundImageFix" result="shape"/>
<feColorMatrix in="SourceAlpha" type="matrix" values="0 0 0 0 0 0 0 0 0 0 0 0 0 0 0 0 0 0 127 0" result="hardAlpha"/>
<feOffset/>
<feGaussianBlur stdDeviation="1.5"/>
<feComposite in2="hardAlpha" operator="arithmetic" k2="-1" k3="1"/>
<feColorMatrix type="matrix" values="0 0 0 0 0 0 0 0 0 0 0 0 0 0 0 0 0 0 0.8 0"/>
<feBlend mode="normal" in2="shape" result="effect1_innerShadow"/>
</filter>
<filter id="filter9_i" x="0.742676" y="26.2815" width="300" height="4" filterUnits="userSpaceOnUse" color-interpolation-filters="sRGB">
<feFlood flood-opacity="0" result="BackgroundImageFix"/>
<feBlend mode="normal" in="SourceGraphic" in2="BackgroundImageFix" result="shape"/>
<feColorMatrix in="SourceAlpha" type="matrix" values="0 0 0 0 0 0 0 0 0 0 0 0 0 0 0 0 0 0 127 0" result="hardAlpha"/>
<feOffset dy="1"/>
<feGaussianBlur stdDeviation="1"/>
<feComposite in2="hardAlpha" operator="arithmetic" k2="-1" k3="1"/>
<feColorMatrix type="matrix" values="0 0 0 0 0 0 0 0 0 0 0 0 0 0 0 0 0 0 0.25 0"/>
<feBlend mode="normal" in2="shape" result="effect1_innerShadow"/>
</filter>
</defs>
</svg>
