<svg width="72" height="107" viewBox="0 0 72 107" fill="none" xmlns="http://www.w3.org/2000/svg">
<path d="M35.2124 23.1106L25.7916 35.015L32.0019 39.4009C35.3176 41.9594 35.8439 46.763 33.1598 50.1567C30.423 53.6551 24.739 54.2816 20.9496 51.4621L11.2656 64.0453C21.318 71.6161 35.1597 71.4594 43.6332 63.5754C40.3701 59.8682 37.8439 54.4904 37.8439 48.9036C37.8965 42.586 41.107 37.208 45.6858 33.501C43.8437 30.7858 38.3175 25.5125 35.2124 23.1106Z" fill="url(#paint0_linear)"/>
<path d="M24.791 8.12596L37.3696 17.8375C39.4222 15.2268 42.7379 14.5481 45.3168 15.9578L54.4744 4.00123C44.8957 -2.57755 31.8435 -0.854535 24.791 8.12596Z" fill="url(#paint1_linear)"/>
<path d="M56.3695 5.41089L47.1066 17.472C48.7381 19.5083 48.896 22.3799 47.3171 24.4162C46.2645 25.7214 44.5277 26.6613 42.7383 26.8701C44.4224 28.4888 46.2645 30.5772 47.5803 32.3002C50.8433 30.1596 53.9485 28.9064 58.6326 28.5931C60.3694 28.4888 62.5272 28.3843 64.2114 28.6976C67.685 21.2313 64.2114 11.9373 56.3695 5.41089Z" fill="url(#paint2_linear)"/>
<path d="M19.0545 39.9233L5.79167 29.6897C-1.94497 39.5577 -0.050278 53.8117 9.58105 62.4791L19.3703 49.7391C17.0545 46.8153 16.9493 42.5861 19.0545 39.9233Z" fill="url(#paint3_linear)"/>
<path d="M51.4216 50.1569L39.6851 49.7915C39.6851 58.0933 48.6322 75.5845 70.9999 67.4392L69.8422 56.9968C54.4741 64.5676 51.5269 52.4543 51.4216 50.1569Z" fill="url(#paint4_linear)"/>
<path d="M51.58 48.3818L39.633 48.0685C39.4224 39.6622 50.0011 25.356 70.9479 31.6215L69.8427 42.795C58.2641 35.4853 51.6853 43.3694 51.58 48.3818Z" fill="url(#paint5_linear)"/>
<path d="M20.8966 51.3579L11.1074 63.8367C11.1601 63.8889 11.2653 63.9411 11.3179 63.9934L21.0019 51.4101C20.9493 51.4101 20.9493 51.3579 20.8966 51.3579Z" fill="url(#paint6_linear)"/>
<path d="M19.5278 49.9481C19.4751 49.8958 19.4225 49.8437 19.4225 49.7915L9.6333 62.5313L9.68593 62.5835L19.5278 49.9481Z" fill="url(#paint7_linear)"/>
<path d="M9.54011 79.6416V81.5749H6.11291V91.9083H3.62651V81.5749H0.23291V79.6416H9.54011Z" fill="black"/>
<path d="M21.2329 91.9416L18.3433 87.1416H17.2681V91.9416H14.7817V79.6416H19.4857C20.9305 79.6416 22.0057 79.9749 22.7785 80.6749C23.5177 81.3749 23.9209 82.2749 23.9209 83.4416C23.9209 84.3749 23.6521 85.1416 23.1481 85.7749C22.6441 86.4082 21.8713 86.8082 20.8969 87.0416L23.9881 91.9416H21.2329ZM17.2681 85.4416H19.3177C20.7289 85.4416 21.4345 84.8082 21.4345 83.5749C21.4345 82.9749 21.2665 82.5082 20.9305 82.1749C20.5945 81.8416 20.0569 81.6749 19.3177 81.6749H17.2681V85.4416Z" fill="black"/>
<path d="M31.9172 79.6416V91.9416H29.4312V79.6416H31.9172Z" fill="black"/>
<path d="M40.5192 87.3749V91.9416H38.0332V79.6416H42.5352C44.0132 79.6416 45.0892 79.9749 45.8282 80.6749C46.5672 81.3749 46.9372 82.3082 46.9372 83.5082C46.9372 84.6749 46.5672 85.6083 45.7942 86.3083C45.0212 87.0083 43.9462 87.3416 42.5352 87.3416H40.5192V87.3749ZM44.4502 83.5082C44.4502 82.9082 44.2822 82.4082 43.9462 82.1082C43.6102 81.7749 43.0392 81.6082 42.2662 81.6082H40.4852V85.3749H42.2662C43.7112 85.4082 44.4502 84.7749 44.4502 83.5082Z" fill="black"/>
<path d="M54.9003 90.0417H59.0663V91.9084H52.4473V79.6084H54.9343V90.0417H54.9003Z" fill="black"/>
<path d="M66.862 81.575V84.775H71.263V86.6417H66.862V89.9417H71.767V91.9084H64.375V79.6084H71.767V81.5417H66.862V81.575Z" fill="black"/>
<path d="M6.21365 97.7082C6.75125 98.1415 7.05365 98.7082 7.18805 99.4082H6.07925C6.01205 98.9748 5.81045 98.6082 5.44085 98.3415C5.10485 98.0748 4.66805 97.9748 4.16405 97.9748C3.79445 97.9748 3.45844 98.0748 3.15604 98.2415C2.85364 98.4082 2.61845 98.6748 2.41685 99.0082C2.24885 99.3415 2.14805 99.7748 2.14805 100.275C2.14805 100.775 2.24885 101.208 2.41685 101.542C2.58485 101.875 2.85364 102.142 3.15604 102.308C3.45844 102.475 3.79445 102.575 4.16405 102.575C4.66805 102.575 5.10485 102.442 5.44085 102.175C5.77685 101.908 5.97845 101.575 6.07925 101.108H7.18805C7.05365 101.842 6.75125 102.408 6.21365 102.808C5.67605 103.242 5.00405 103.442 4.23125 103.442C3.62645 103.442 3.08885 103.308 2.61845 103.042C2.14805 102.775 1.77844 102.408 1.50964 101.942C1.24084 101.475 1.10645 100.908 1.10645 100.242C1.10645 99.5748 1.24084 99.0082 1.50964 98.5415C1.77844 98.0415 2.14805 97.6748 2.61845 97.4415C3.08885 97.1748 3.62645 97.0415 4.23125 97.0415C5.03765 97.0748 5.67605 97.3082 6.21365 97.7082Z" fill="black"/>
<path d="M14.3112 97.4752C14.7816 97.7418 15.1512 98.1085 15.42 98.5752C15.6888 99.0752 15.8232 99.6418 15.8232 100.275C15.8232 100.942 15.6888 101.508 15.42 101.975C15.1512 102.442 14.7816 102.842 14.3112 103.075C13.8408 103.342 13.3032 103.475 12.6984 103.475C12.0936 103.475 11.556 103.342 11.0856 103.075C10.6152 102.808 10.2456 102.442 9.94324 101.975C9.67444 101.508 9.54004 100.942 9.54004 100.275C9.54004 99.6085 9.67444 99.0418 9.94324 98.5752C10.212 98.0752 10.5816 97.7085 11.0856 97.4752C11.5896 97.2418 12.0936 97.0752 12.6984 97.0752C13.2696 97.0752 13.8408 97.2085 14.3112 97.4752ZM11.6568 98.2418C11.3544 98.4085 11.0856 98.6752 10.884 99.0085C10.6824 99.3418 10.5816 99.7752 10.5816 100.275C10.5816 100.775 10.6824 101.208 10.884 101.542C11.0856 101.875 11.3208 102.142 11.6568 102.308C11.9592 102.475 12.3288 102.575 12.6984 102.575C13.068 102.575 13.404 102.475 13.74 102.308C14.0424 102.142 14.3112 101.875 14.5128 101.542C14.7144 101.208 14.8152 100.775 14.8152 100.275C14.8152 99.7752 14.7144 99.3418 14.5128 99.0085C14.3112 98.6752 14.076 98.4085 13.74 98.2418C13.404 98.0752 13.068 97.9752 12.6984 97.9752C12.2952 98.0085 11.9592 98.0752 11.6568 98.2418Z" fill="black"/>
<path d="M23.5511 97.7752C23.9879 98.2418 24.2231 98.9085 24.2231 99.8085V103.442H23.1815V99.9085C23.1815 99.2752 23.0135 98.8085 22.7111 98.4752C22.3751 98.1418 21.9383 97.9752 21.4007 97.9752C20.8295 97.9752 20.3591 98.1752 20.0231 98.5418C19.6871 98.9085 19.5191 99.4418 19.5191 100.142V103.442H18.4775V97.1752H19.5191V98.6418C19.6871 98.1418 19.9559 97.7418 20.3591 97.4752C20.7623 97.2085 21.2327 97.0752 21.7703 97.0752C22.5095 97.0752 23.1143 97.3085 23.5511 97.7752Z" fill="black"/>
<path d="M30.8092 97.6416C31.2462 98.0083 31.5152 98.5083 31.5822 99.1416H30.5742C30.5402 98.775 30.3722 98.475 30.1032 98.2083C29.8352 97.975 29.4992 97.8416 29.0282 97.8416C28.6592 97.8416 28.3562 97.9416 28.1552 98.1083C27.9532 98.2749 27.8522 98.5416 27.8522 98.8416C27.8522 99.0749 27.9192 99.2416 28.0542 99.4083C28.1882 99.5416 28.3562 99.6416 28.5912 99.7416C28.7932 99.8083 29.0952 99.875 29.4652 99.975C29.9352 100.075 30.3052 100.175 30.6072 100.308C30.9102 100.408 31.1452 100.608 31.3472 100.842C31.5482 101.075 31.6492 101.408 31.6492 101.808C31.6492 102.308 31.4472 102.742 31.0782 103.042C30.6752 103.375 30.1712 103.508 29.5322 103.508C28.7932 103.508 28.1552 103.342 27.6842 102.975C27.2142 102.608 26.9452 102.108 26.8442 101.475H27.8522C27.8862 101.842 28.0542 102.175 28.3562 102.408C28.6592 102.642 29.0282 102.775 29.5322 102.775C29.9022 102.775 30.1712 102.675 30.3722 102.508C30.5742 102.342 30.6752 102.075 30.6752 101.775C30.6752 101.542 30.6072 101.342 30.4732 101.208C30.3392 101.075 30.1372 100.942 29.9352 100.875C29.7342 100.808 29.4312 100.708 29.0622 100.642C28.5912 100.542 28.2222 100.442 27.9532 100.308C27.6842 100.208 27.4492 100.042 27.2472 99.8083C27.0462 99.575 26.9452 99.275 26.9452 98.875C26.9452 98.3416 27.1472 97.9416 27.5162 97.6083C27.9192 97.2749 28.4232 97.1083 29.0952 97.1083C29.8012 97.0749 30.3722 97.275 30.8092 97.6416Z" fill="black"/>
<path d="M39.9143 97.1749V103.442H38.8733V101.942C38.7053 102.442 38.4363 102.842 38.0333 103.108C37.6303 103.375 37.1593 103.508 36.5883 103.508C35.8493 103.508 35.2783 103.275 34.8073 102.808C34.3703 102.342 34.1353 101.675 34.1353 100.808V97.1749H35.1773V100.708C35.1773 101.342 35.3453 101.808 35.6473 102.142C35.9833 102.475 36.4203 102.642 36.9583 102.642C37.5293 102.642 37.9993 102.442 38.3353 102.075C38.6713 101.708 38.8393 101.175 38.8393 100.475V97.1416H39.9143V97.1749Z" fill="black"/>
<path d="M43.8789 94.9751V103.408H42.8379V94.9751H43.8789Z" fill="black"/>
<path d="M49.8262 102.508V103.408H49.0542C48.4152 103.408 47.9452 103.242 47.6092 102.942C47.3062 102.642 47.1382 102.142 47.1382 101.408V98.0417H46.1982V97.1417H47.1382V95.6084H48.1802V97.175H49.8262V98.075H48.1802V101.475C48.1802 101.875 48.2472 102.142 48.4152 102.308C48.5832 102.475 48.8182 102.542 49.1882 102.542H49.8262V102.508Z" fill="black"/>
<path d="M52.3802 94.8752C52.5142 94.7418 52.6822 94.7085 52.8842 94.7085C53.0852 94.7085 53.2872 94.7752 53.3882 94.8752C53.5222 95.0085 53.5892 95.1418 53.5892 95.3418C53.5892 95.5418 53.5222 95.6752 53.3882 95.8085C53.2532 95.9418 53.0852 95.9752 52.8842 95.9752C52.6822 95.9752 52.4812 95.9085 52.3802 95.8085C52.2452 95.6752 52.1782 95.5418 52.1782 95.3418C52.1782 95.1418 52.2452 94.9752 52.3802 94.8752ZM53.4212 97.1752V103.442H52.3802V97.1752H53.4212Z" fill="black"/>
<path d="M61.4519 97.7752C61.8889 98.2418 62.1239 98.9085 62.1239 99.8085V103.442H61.0819V99.9085C61.0819 99.2752 60.9139 98.8085 60.6119 98.4752C60.2759 98.1418 59.8389 97.9752 59.3019 97.9752C58.7299 97.9752 58.2599 98.1752 57.9239 98.5418C57.5879 98.9085 57.4199 99.4418 57.4199 100.142V103.442H56.3779V97.1752H57.4199V98.6418C57.5879 98.1418 57.8569 97.7418 58.2599 97.4752C58.6629 97.2085 59.1339 97.0752 59.6709 97.0752C60.4099 97.0752 61.0149 97.3085 61.4519 97.7752Z" fill="black"/>
<path d="M69.1461 97.5417C69.5831 97.8417 69.8521 98.2417 70.0201 98.7751V97.1751H71.0611V103.542C71.0611 104.108 70.9271 104.642 70.6921 105.075C70.4571 105.508 70.0871 105.875 69.6501 106.108C69.2131 106.375 68.6761 106.475 68.1051 106.475C67.2651 106.475 66.5591 106.275 66.0211 105.875C65.4841 105.475 65.1481 104.908 65.0131 104.242H66.0551C66.1891 104.675 66.4251 104.975 66.7611 105.242C67.0971 105.475 67.5331 105.608 68.0711 105.608C68.6421 105.608 69.1131 105.442 69.4821 105.075C69.8521 104.708 70.0531 104.208 70.0531 103.575V101.875C69.8851 102.375 69.5831 102.775 69.1801 103.108C68.7431 103.408 68.2391 103.575 67.6341 103.575C67.0631 103.575 66.5931 103.442 66.1561 103.175C65.7191 102.908 65.3831 102.542 65.1141 102.075C64.8791 101.608 64.7451 101.042 64.7451 100.375C64.7451 99.7084 64.8791 99.1417 65.1141 98.6751C65.3491 98.1751 65.7191 97.8084 66.1561 97.5751C66.5931 97.3084 67.0971 97.1751 67.6341 97.1751C68.2051 97.0751 68.7091 97.2417 69.1461 97.5417ZM66.3571 98.6084C65.9541 99.0084 65.7861 99.5751 65.7861 100.275C65.7861 100.975 65.9881 101.542 66.3571 101.942C66.7611 102.342 67.2651 102.542 67.9031 102.542C68.3061 102.542 68.6761 102.442 69.0121 102.242C69.3481 102.042 69.5831 101.775 69.7851 101.442C69.9861 101.108 70.0531 100.708 70.0531 100.242C70.0531 99.7751 69.9531 99.3751 69.7851 99.0417C69.6171 98.7084 69.3481 98.4084 69.0121 98.2417C68.6761 98.0417 68.3061 97.9751 67.9031 97.9751C67.2311 98.0084 66.7271 98.2084 66.3571 98.6084Z" fill="black"/>
<defs>
<linearGradient id="paint0_linear" x1="11.107" y1="46.3558" x2="45.7758" y2="46.3558" gradientUnits="userSpaceOnUse">
<stop stop-color="#00B3C7"/>
<stop offset="1" stop-color="#00749A"/>
</linearGradient>
<linearGradient id="paint1_linear" x1="24.7931" y1="8.94674" x2="65.4264" y2="8.94674" gradientUnits="userSpaceOnUse">
<stop stop-color="#00B3C7"/>
<stop offset="1" stop-color="#00749A"/>
</linearGradient>
<linearGradient id="paint2_linear" x1="24.7012" y1="18.8756" x2="65.5439" y2="18.8756" gradientUnits="userSpaceOnUse">
<stop stop-color="#00B3C7"/>
<stop offset="1" stop-color="#00749A"/>
</linearGradient>
<linearGradient id="paint3_linear" x1="1.01815" y1="46.0945" x2="19.5147" y2="46.0945" gradientUnits="userSpaceOnUse">
<stop stop-color="#00B3C7"/>
<stop offset="1" stop-color="#00749A"/>
</linearGradient>
<linearGradient id="paint4_linear" x1="46.5467" y1="65.0262" x2="65.4688" y2="50.9162" gradientUnits="userSpaceOnUse">
<stop stop-color="#00B3C7"/>
<stop offset="1" stop-color="#00749A"/>
</linearGradient>
<linearGradient id="paint5_linear" x1="46.8056" y1="33.5739" x2="66.1212" y2="47.9773" gradientUnits="userSpaceOnUse">
<stop stop-color="#00B3C7"/>
<stop offset="1" stop-color="#00749A"/>
</linearGradient>
<linearGradient id="paint6_linear" x1="11.1068" y1="57.6781" x2="45.7755" y2="57.6781" gradientUnits="userSpaceOnUse">
<stop stop-color="#00B3C7"/>
<stop offset="1" stop-color="#00749A"/>
</linearGradient>
<linearGradient id="paint7_linear" x1="1.0173" y1="56.1526" x2="19.514" y2="56.1526" gradientUnits="userSpaceOnUse">
<stop stop-color="#0082A4"/>
<stop offset="1" stop-color="#00749A"/>
</linearGradient>
</defs>
</svg>
