<svg width="19" height="20" viewBox="0 0 19 20" fill="none" xmlns="http://www.w3.org/2000/svg">
<path d="M5.3239 10.8474L9.16558 14.4567C9.35357 14.6334 9.64643 14.6334 9.83442 14.4567L13.6761 10.8474C13.8725 10.6627 13.882 10.354 13.6975 10.1578C13.5127 9.96151 13.2038 9.95198 13.0074 10.1364L9.9881 12.9733V0.487805C9.9881 0.218369 9.7696 0 9.5 0C9.2304 0 9.0119 0.218369 9.0119 0.487805V12.9733L5.99255 10.1366C5.79617 9.95198 5.4873 9.96151 5.30254 10.1578C5.11798 10.3542 5.12751 10.6629 5.3239 10.8474Z" fill="black"/>
<path d="M16.5595 3.62443H14.0845C13.8149 3.62443 13.5964 3.8428 13.5964 4.11223C13.5964 4.38167 13.8149 4.60004 14.0845 4.60004H16.5595C17.3679 4.60099 18.0229 5.25553 18.0238 6.06345V17.561C18.0229 18.3689 17.3679 19.0234 16.5595 19.0244H2.44049C1.63208 19.0234 0.97715 18.3689 0.976197 17.561V6.06345C0.97715 5.25553 1.63208 4.60099 2.44049 4.60004H4.91569C5.18509 4.60004 5.40379 4.38167 5.40379 4.11223C5.40379 3.8428 5.18509 3.62443 4.91569 3.62443H2.44049C1.09326 3.62595 0.00152531 4.71703 0 6.06345V17.561C0.00152531 18.9074 1.09326 19.9985 2.44049 20H16.5595C17.9067 19.9985 18.9985 18.9074 19 17.561V6.06345C18.9985 4.71703 17.9067 3.62595 16.5595 3.62443Z" fill="black"/>
</svg>
