<?xml version="1.0" encoding="utf-8"?>
<!-- Generator: Adobe Illustrator 21.0.0, SVG Export Plug-In . SVG Version: 6.00 Build 0)  -->
<svg version="1.1" id="Layer_1" xmlns="http://www.w3.org/2000/svg" xmlns:xlink="http://www.w3.org/1999/xlink" x="0px" y="0px"
	 viewBox="0 0 20 20" style="enable-background:new 0 0 20 20;" xml:space="preserve">
<style type="text/css">
	.st0{fill:url(#SVGID_1_);}
	.st1{fill:url(#SVGID_2_);}
</style>
<g>
	<linearGradient id="SVGID_1_" gradientUnits="userSpaceOnUse" x1="5.6741" y1="7.2953" x2="14.3286" y2="7.2953">
		<stop  offset="0" style="stop-color:#00B2C6"/>
		<stop  offset="1" style="stop-color:#007399"/>
	</linearGradient>
	<path class="st0" d="M5.8,10.8l3.8,3.6c0.2,0.2,0.5,0.2,0.7,0l3.8-3.6c0.2-0.2,0.2-0.5,0-0.7c-0.2-0.2-0.5-0.2-0.7,0l-3,2.8V0.5
		C10.5,0.2,10.3,0,10,0S9.5,0.2,9.5,0.5V13l-3-2.8C6.3,10,6,10,5.8,10.2C5.6,10.4,5.6,10.7,5.8,10.8z"/>
	<linearGradient id="SVGID_2_" gradientUnits="userSpaceOnUse" x1="0.5071" y1="11.8129" x2="19.4957" y2="11.8129">
		<stop  offset="0" style="stop-color:#00B2C6"/>
		<stop  offset="1" style="stop-color:#007399"/>
	</linearGradient>
	<path class="st1" d="M17.1,3.6h-2.5c-0.3,0-0.5,0.2-0.5,0.5s0.2,0.5,0.5,0.5h2.5c0.8,0,1.5,0.7,1.5,1.5v11.5c0,0.8-0.7,1.5-1.5,1.5
		H2.9c-0.8,0-1.5-0.7-1.5-1.5V6.1c0-0.8,0.7-1.5,1.5-1.5h2.5c0.3,0,0.5-0.2,0.5-0.5S5.7,3.6,5.4,3.6H2.9c-1.3,0-2.4,1.1-2.4,2.4
		v11.5c0,1.3,1.1,2.4,2.4,2.4h14.1c1.3,0,2.4-1.1,2.4-2.4V6.1C19.5,4.7,18.4,3.6,17.1,3.6z"/>
</g>
</svg>
