<svg width="18" height="18" viewBox="0 0 18 18" fill="none" xmlns="http://www.w3.org/2000/svg">
<path d="M17.4375 2.81289H10.125V1.12539C10.125 0.957763 10.0508 0.799138 9.92138 0.692263C9.79313 0.585388 9.621 0.539263 9.459 0.573013L0.459 2.26051C0.192375 2.31001 0 2.54176 0 2.81289V15.1879C0 15.4579 0.192375 15.6908 0.459 15.7403L9.459 17.4278C9.49275 17.4345 9.52763 17.4379 9.5625 17.4379C9.693 17.4379 9.82013 17.3929 9.92138 17.3085C10.0508 17.2016 10.125 17.0419 10.125 16.8754V15.1879H17.4375C17.748 15.1879 18 14.9359 18 14.6254V3.37539C18 3.06489 17.748 2.81289 17.4375 2.81289ZM7.7355 10.8803C7.94025 11.1131 7.91663 11.4686 7.68262 11.6734C7.57575 11.7668 7.44413 11.8129 7.3125 11.8129C7.15613 11.8129 7.00087 11.7476 6.8895 11.6205L5.25375 9.75189L3.81938 11.5969C3.708 11.7386 3.5415 11.8129 3.375 11.8129C3.25463 11.8129 3.13313 11.7746 3.02963 11.6948C2.78438 11.5035 2.7405 11.1503 2.93062 10.905L4.49888 8.88901L2.952 7.12051C2.74725 6.88764 2.77087 6.53214 3.00487 6.32739C3.23775 6.12264 3.59213 6.14514 3.79913 6.38026L5.20312 7.98451L6.86925 5.84251C7.0605 5.59839 7.41375 5.55339 7.659 5.74464C7.90425 5.93476 7.94812 6.28801 7.75688 6.53439L5.95687 8.84739L7.7355 10.8803ZM16.875 14.0629H10.125V12.9379H11.8125C12.123 12.9379 12.375 12.6859 12.375 12.3754C12.375 12.0649 12.123 11.8129 11.8125 11.8129H10.125V10.6879H11.8125C12.123 10.6879 12.375 10.4359 12.375 10.1254C12.375 9.81489 12.123 9.56289 11.8125 9.56289H10.125V8.43789H11.8125C12.123 8.43789 12.375 8.18589 12.375 7.87539C12.375 7.56489 12.123 7.31289 11.8125 7.31289H10.125V6.18789H11.8125C12.123 6.18789 12.375 5.93589 12.375 5.62539C12.375 5.31489 12.123 5.06289 11.8125 5.06289H10.125V3.93789H16.875V14.0629Z" fill="black"/>
</svg>
