<svg width="18" height="18" viewBox="0 0 18 18" fill="none" xmlns="http://www.w3.org/2000/svg">
<path d="M16.1016 5.09766H1.89844C1.02611 5.09766 0.316406 5.80736 0.316406 6.67969V13.0078C0.316406 13.8801 1.02611 14.5898 1.89844 14.5898H16.1016C16.9739 14.5898 17.6836 13.8801 17.6836 13.0078V6.67969C17.6836 5.80736 16.9739 5.09766 16.1016 5.09766ZM4.49089 10.6642C4.35607 10.6642 4.12573 10.6652 3.91011 10.6663V11.8826C3.91011 12.1738 3.674 12.4099 3.38277 12.4099C3.09154 12.4099 2.85543 12.1738 2.85543 11.8826L2.84766 7.87669C2.8472 7.73656 2.90257 7.60198 3.0015 7.5027C3.10043 7.40341 3.23487 7.34766 3.375 7.34766H4.49089C5.41747 7.34766 6.17133 8.09156 6.17133 9.00594C6.17133 9.92032 5.41747 10.6642 4.49089 10.6642ZM9.01789 12.2828C8.70381 12.2882 7.91817 12.2912 7.88488 12.2914H7.88287C7.74373 12.2914 7.61017 12.2364 7.51138 12.1383C7.4121 12.0397 7.35606 11.9058 7.35553 11.7659C7.3555 11.7519 7.34766 7.87602 7.34766 7.87602C7.34741 7.73599 7.40282 7.60159 7.50175 7.50248C7.60068 7.40338 7.73497 7.34766 7.875 7.34766H8.97645C10.2312 7.34766 11.0743 8.34103 11.0743 9.81953C11.0743 11.226 10.2094 12.2619 9.01789 12.2828ZM14.4218 9.2584C14.713 9.2584 14.9491 9.49451 14.9491 9.78574C14.9491 10.077 14.713 10.3131 14.4218 10.3131H13.4648V11.8125C13.4648 12.1037 13.2287 12.3398 12.9375 12.3398C12.6463 12.3398 12.4102 12.1037 12.4102 11.8125V7.83429C12.4102 7.54305 12.6463 7.30694 12.9375 7.30694H14.5499C14.8411 7.30694 15.0772 7.54305 15.0772 7.83429C15.0772 8.12552 14.8411 8.36163 14.5499 8.36163H13.4648V9.2584H14.4218Z" fill="black"/>
<path d="M8.9761 8.40234H8.40295C8.40376 8.87836 8.40664 10.7759 8.40812 11.2339C8.62756 11.2325 8.86255 11.2306 8.99913 11.2282C9.70383 11.2159 10.0193 10.5118 10.0193 9.81953C10.0193 9.48705 9.94405 8.40234 8.9761 8.40234Z" fill="black"/>
<path d="M4.49098 8.40234H3.90401C3.90464 8.63701 3.90524 8.88666 3.90524 9.00594C3.90524 9.14534 3.90622 9.38711 3.90735 9.61161C4.12377 9.61052 4.35496 9.60954 4.49101 9.60954C4.8302 9.60954 5.11676 9.33314 5.11676 9.00594C5.11676 8.67874 4.83016 8.40234 4.49098 8.40234Z" fill="black"/>
<path d="M15.5551 4.04297C15.4328 3.70793 15.243 3.39827 14.9916 3.13313L12.8012 0.822621C12.3056 0.299848 11.6081 0 10.8877 0H3.86719C2.99486 0 2.28516 0.709699 2.28516 1.58203V4.04297H15.5551Z" fill="black"/>
<path d="M2.28516 15.6445V16.418C2.28516 17.2903 2.99486 18 3.86719 18H14.1328C15.0051 18 15.7148 17.2903 15.7148 16.418V15.6445H2.28516Z" fill="black"/>
</svg>
