<?xml version="1.0" encoding="utf-8"?>
<!-- Generator: Adobe Illustrator 21.0.0, SVG Export Plug-In . SVG Version: 6.00 Build 0)  -->
<svg version="1.1" id="Layer_1" xmlns="http://www.w3.org/2000/svg" xmlns:xlink="http://www.w3.org/1999/xlink" x="0px" y="0px"
	 viewBox="0 0 20 20" style="enable-background:new 0 0 20 20;" xml:space="preserve">
<style type="text/css">
	.st0{fill:url(#SVGID_1_);}
	.st1{fill:url(#SVGID_2_);}
</style>
<g>
	<linearGradient id="SVGID_1_" gradientUnits="userSpaceOnUse" x1="0" y1="16.6662" x2="20" y2="16.6662">
		<stop  offset="0" style="stop-color:#00B2C6"/>
		<stop  offset="1" style="stop-color:#007399"/>
	</linearGradient>
	<path class="st0" d="M19.4,13.3c-0.3,0-0.6,0.3-0.6,0.6v3.8c0,0.6-0.5,1-1,1H2.3c-0.6,0-1-0.5-1-1V14c0-0.3-0.3-0.6-0.6-0.6
		C0.3,13.3,0,13.6,0,14v3.8C0,19,1,20,2.3,20h15.4c1.3,0,2.3-1,2.3-2.3V14C20,13.6,19.7,13.3,19.4,13.3z"/>
	<linearGradient id="SVGID_2_" gradientUnits="userSpaceOnUse" x1="6.0411" y1="7.0826" x2="13.9581" y2="7.0826">
		<stop  offset="0" style="stop-color:#00B2C6"/>
		<stop  offset="1" style="stop-color:#007399"/>
	</linearGradient>
	<path class="st1" d="M7.1,4.4l2.3-2.3v11.4c0,0.3,0.3,0.6,0.6,0.6s0.6-0.3,0.6-0.6V2.1l2.3,2.3c0.1,0.1,0.3,0.2,0.4,0.2
		c0.2,0,0.3-0.1,0.4-0.2c0.2-0.2,0.2-0.6,0-0.9l-3.3-3.3c-0.2-0.2-0.6-0.2-0.9,0L6.2,3.5C6,3.8,6,4.2,6.2,4.4
		C6.5,4.6,6.9,4.6,7.1,4.4z"/>
</g>
</svg>
