<svg width="18" height="18" viewBox="0 0 18 18" fill="none" xmlns="http://www.w3.org/2000/svg">
<path d="M17.4375 2.81289H10.125V1.12539C10.125 0.957763 10.0508 0.799138 9.92138 0.692263C9.79313 0.585388 9.621 0.539263 9.459 0.573013L0.459 2.26051C0.192375 2.31001 0 2.54176 0 2.81289V15.1879C0 15.4579 0.192375 15.6908 0.459 15.7403L9.459 17.4278C9.49275 17.4345 9.52763 17.4379 9.5625 17.4379C9.693 17.4379 9.82013 17.3929 9.92138 17.3085C10.0508 17.2016 10.125 17.0419 10.125 16.8754V15.1879H17.4375C17.748 15.1879 18 14.9359 18 14.6254V3.37539C18 3.06489 17.748 2.81289 17.4375 2.81289ZM7.87163 6.81226L7.30913 11.8759C7.27988 12.1335 7.07737 12.3394 6.81975 12.3709C6.79612 12.3743 6.77362 12.3754 6.75 12.3754C6.51825 12.3754 6.30675 12.2314 6.2235 12.0109L5.0625 8.91489L3.9015 12.0109C3.8115 12.2516 3.57525 12.399 3.31425 12.372C3.05888 12.345 2.85413 12.147 2.81813 11.8916L2.25563 7.95414C2.21175 7.64701 2.4255 7.36239 2.73263 7.31851C3.04087 7.27351 3.3255 7.48839 3.36937 7.79551L3.62025 9.55501L4.53487 7.11489C4.69913 6.67614 5.42362 6.67614 5.589 7.11489L6.45075 9.41214L6.75337 6.68739C6.78825 6.37914 7.074 6.15864 7.37437 6.19126C7.68375 6.22614 7.90538 6.50401 7.87163 6.81226ZM16.875 14.0629H10.125V12.9379H15.1875C15.498 12.9379 15.75 12.6859 15.75 12.3754C15.75 12.0649 15.498 11.8129 15.1875 11.8129H10.125V10.6879H15.1875C15.498 10.6879 15.75 10.4359 15.75 10.1254C15.75 9.81489 15.498 9.56289 15.1875 9.56289H10.125V8.43789H15.1875C15.498 8.43789 15.75 8.18589 15.75 7.87539C15.75 7.56489 15.498 7.31289 15.1875 7.31289H10.125V6.18789H15.1875C15.498 6.18789 15.75 5.93589 15.75 5.62539C15.75 5.31489 15.498 5.06289 15.1875 5.06289H10.125V3.93789H16.875V14.0629Z" fill="#00B3C7"/>
</svg>
