<svg width="18" height="18" viewBox="0 0 18 18" fill="none" xmlns="http://www.w3.org/2000/svg">
<path d="M17.4375 2.81288H10.125V1.12538C10.125 0.957759 10.0508 0.799134 9.92138 0.692259C9.79313 0.585384 9.621 0.539259 9.459 0.573009L0.459 2.26051C0.192375 2.31001 0 2.54176 0 2.81288V15.1879C0 15.4579 0.192375 15.6908 0.459 15.7403L9.459 17.4278C9.49275 17.4345 9.52763 17.4379 9.5625 17.4379C9.693 17.4379 9.82013 17.3929 9.92138 17.3085C10.0508 17.2016 10.125 17.0419 10.125 16.8754V15.1879H17.4375C17.748 15.1879 18 14.9359 18 14.6254V3.37538C18 3.06488 17.748 2.81288 17.4375 2.81288ZM7.87163 6.81226L7.30913 11.8759C7.27988 12.1335 7.07737 12.3394 6.81975 12.3709C6.79612 12.3743 6.77362 12.3754 6.75 12.3754C6.51825 12.3754 6.30675 12.2314 6.2235 12.0109L5.0625 8.91488L3.9015 12.0109C3.8115 12.2516 3.57525 12.399 3.31425 12.372C3.05888 12.345 2.85413 12.147 2.81813 11.8916L2.25563 7.95413C2.21175 7.64701 2.4255 7.36238 2.73263 7.31851C3.04087 7.27351 3.3255 7.48838 3.36937 7.79551L3.62025 9.55501L4.53487 7.11488C4.69913 6.67613 5.42362 6.67613 5.589 7.11488L6.45075 9.41214L6.75337 6.68738C6.78825 6.37913 7.074 6.15863 7.37437 6.19126C7.68375 6.22613 7.90538 6.50401 7.87163 6.81226ZM16.875 14.0629H10.125V12.9379H15.1875C15.498 12.9379 15.75 12.6859 15.75 12.3754C15.75 12.0649 15.498 11.8129 15.1875 11.8129H10.125V10.6879H15.1875C15.498 10.6879 15.75 10.4359 15.75 10.1254C15.75 9.81488 15.498 9.56288 15.1875 9.56288H10.125V8.43788H15.1875C15.498 8.43788 15.75 8.18588 15.75 7.87538C15.75 7.56489 15.498 7.31288 15.1875 7.31288H10.125V6.18788H15.1875C15.498 6.18788 15.75 5.93588 15.75 5.62538C15.75 5.31488 15.498 5.06288 15.1875 5.06288H10.125V3.93788H16.875V14.0629Z" fill="black"/>
</svg>
